<mxfile host="app.diagrams.net" agent="Mozilla/5.0 (Windows NT 10.0; Win64; x64) AppleWebKit/537.36 (KHTML, like Gecko) Chrome/131.0.0.0 Safari/537.36" version="26.0.5">
  <diagram name="Page-1" id="ozDmUi6099faQL4ttm5e">
    <mxGraphModel dx="1659" dy="878" grid="1" gridSize="10" guides="1" tooltips="1" connect="1" arrows="1" fold="1" page="1" pageScale="1" pageWidth="827" pageHeight="1169" math="0" shadow="0">
      <root>
        <mxCell id="0" />
        <mxCell id="1" parent="0" />
        <mxCell id="t6atKej5fnVRMdNGpLLc-1" value="" style="rounded=1;whiteSpace=wrap;html=1;strokeColor=#475E75;fillColor=#F5F6F7;arcSize=24;absoluteArcSize=1;imageWidth=64;imageHeight=64;strokeWidth=1.5;" vertex="1" parent="1">
          <mxGeometry x="40" y="140" width="740" height="330" as="geometry" />
        </mxCell>
        <mxCell id="t6atKej5fnVRMdNGpLLc-2" value="&lt;b&gt;KobrA-Specification Models&lt;/b&gt;" style="text;fontSize=16;verticalAlign=middle;strokeColor=none;fillColor=none;whiteSpace=wrap;html=1;" vertex="1" parent="1">
          <mxGeometry x="40" y="40" width="346" height="30" as="geometry" />
        </mxCell>
        <mxCell id="t6atKej5fnVRMdNGpLLc-3" value="" style="dashed=0;shape=line;strokeWidth=2;noLabel=1;strokeColor=#0C8CF2;opacity=50;" vertex="1" parent="1">
          <mxGeometry x="40" y="65" width="346" height="10" as="geometry" />
        </mxCell>
        <mxCell id="t6atKej5fnVRMdNGpLLc-7" value="&lt;b&gt;Structural Model&lt;/b&gt;" style="rounded=1;whiteSpace=wrap;html=1;strokeWidth=1.5;arcSize=16;perimeterSpacing=0;absoluteArcSize=1;" vertex="1" parent="1">
          <mxGeometry x="50" y="150" width="130" height="30" as="geometry" />
        </mxCell>
        <mxCell id="t6atKej5fnVRMdNGpLLc-8" value="" style="group;glass=0;shadow=0;" vertex="1" connectable="0" parent="1">
          <mxGeometry x="640" y="160" width="130" height="90" as="geometry" />
        </mxCell>
        <mxCell id="t6atKej5fnVRMdNGpLLc-9" value="" style="shape=parallelogram;html=1;strokeWidth=1;perimeter=parallelogramPerimeter;whiteSpace=wrap;rounded=1;arcSize=12;size=0.23;fillColor=#000000;shadow=0;" vertex="1" parent="t6atKej5fnVRMdNGpLLc-8">
          <mxGeometry x="92.85714285714286" y="24" width="37.142857142857146" height="12" as="geometry" />
        </mxCell>
        <mxCell id="t6atKej5fnVRMdNGpLLc-10" value="" style="shape=parallelogram;html=1;strokeWidth=1;perimeter=parallelogramPerimeter;whiteSpace=wrap;rounded=1;arcSize=12;size=0.23;shadow=0;" vertex="1" parent="t6atKej5fnVRMdNGpLLc-8">
          <mxGeometry x="49.523809523809526" width="37.142857142857146" height="12" as="geometry" />
        </mxCell>
        <mxCell id="t6atKej5fnVRMdNGpLLc-11" value="" style="shape=parallelogram;html=1;strokeWidth=1;perimeter=parallelogramPerimeter;whiteSpace=wrap;rounded=1;arcSize=12;size=0.23;shadow=0;" vertex="1" parent="t6atKej5fnVRMdNGpLLc-8">
          <mxGeometry y="24" width="37.142857142857146" height="12" as="geometry" />
        </mxCell>
        <mxCell id="t6atKej5fnVRMdNGpLLc-12" value="" style="edgeStyle=isometricEdgeStyle;endArrow=none;html=1;elbow=vertical;rounded=0;entryX=1;entryY=0.5;entryDx=0;entryDy=0;exitX=1;exitY=0.5;exitDx=0;exitDy=0;" edge="1" parent="t6atKej5fnVRMdNGpLLc-8" source="t6atKej5fnVRMdNGpLLc-10" target="t6atKej5fnVRMdNGpLLc-10">
          <mxGeometry width="50" height="100" relative="1" as="geometry">
            <mxPoint x="89.76190476190476" y="72" as="sourcePoint" />
            <mxPoint x="120.71428571428572" y="12" as="targetPoint" />
            <Array as="points" />
          </mxGeometry>
        </mxCell>
        <mxCell id="t6atKej5fnVRMdNGpLLc-13" value="" style="endArrow=open;html=1;rounded=0;endSize=2;entryX=1;entryY=0.5;entryDx=0;entryDy=0;exitX=0.598;exitY=-0.024;exitDx=0;exitDy=0;exitPerimeter=0;startArrow=open;startFill=0;endFill=0;startSize=2;" edge="1" parent="t6atKej5fnVRMdNGpLLc-8" source="t6atKej5fnVRMdNGpLLc-9" target="t6atKej5fnVRMdNGpLLc-10">
          <mxGeometry width="50" height="50" relative="1" as="geometry">
            <mxPoint x="117.61904761904762" y="30" as="sourcePoint" />
            <mxPoint x="94.77619047619042" y="12" as="targetPoint" />
            <Array as="points">
              <mxPoint x="123.80952380952381" y="6" />
            </Array>
          </mxGeometry>
        </mxCell>
        <mxCell id="t6atKej5fnVRMdNGpLLc-14" value="" style="endArrow=open;html=1;rounded=0;endSize=2;entryX=0;entryY=0.5;entryDx=0;entryDy=0;exitX=0.5;exitY=0;exitDx=0;exitDy=0;strokeColor=default;align=center;verticalAlign=middle;fontFamily=Helvetica;fontSize=11;fontColor=default;labelBackgroundColor=default;startArrow=open;startFill=0;startSize=2;endFill=0;" edge="1" parent="t6atKej5fnVRMdNGpLLc-8" source="t6atKej5fnVRMdNGpLLc-11" target="t6atKej5fnVRMdNGpLLc-10">
          <mxGeometry width="50" height="50" relative="1" as="geometry">
            <mxPoint x="59.42857142857143" y="24" as="sourcePoint" />
            <mxPoint x="51.38095238095238" y="12" as="targetPoint" />
            <Array as="points">
              <mxPoint x="30.952380952380953" y="6" />
            </Array>
          </mxGeometry>
        </mxCell>
        <mxCell id="t6atKej5fnVRMdNGpLLc-15" value="" style="shape=cube;whiteSpace=wrap;html=1;boundedLbl=1;backgroundOutline=1;darkOpacity=0.05;darkOpacity2=0.1;size=10;shadow=1;" vertex="1" parent="t6atKej5fnVRMdNGpLLc-8">
          <mxGeometry x="52.61904761904762" y="25.2" width="24.761904761904763" height="36" as="geometry" />
        </mxCell>
        <mxCell id="t6atKej5fnVRMdNGpLLc-16" value="" style="endArrow=block;html=1;rounded=0;exitX=0.475;exitY=0.969;exitDx=0;exitDy=0;exitPerimeter=0;entryX=0.332;entryY=-0.012;entryDx=0;entryDy=0;entryPerimeter=0;endSize=2;strokeColor=default;align=center;verticalAlign=middle;fontFamily=Helvetica;fontSize=11;fontColor=default;labelBackgroundColor=default;endFill=1;" edge="1" parent="t6atKej5fnVRMdNGpLLc-8" source="t6atKej5fnVRMdNGpLLc-10" target="t6atKej5fnVRMdNGpLLc-15">
          <mxGeometry width="50" height="50" relative="1" as="geometry">
            <mxPoint x="74.28571428571429" y="78" as="sourcePoint" />
            <mxPoint x="105.23809523809524" y="48" as="targetPoint" />
          </mxGeometry>
        </mxCell>
        <mxCell id="t6atKej5fnVRMdNGpLLc-17" value="" style="endArrow=block;html=1;rounded=0;exitX=0;exitY=0.25;exitDx=0;exitDy=0;entryX=0.753;entryY=0.083;entryDx=0;entryDy=0;entryPerimeter=0;endSize=2;strokeColor=default;align=center;verticalAlign=middle;fontFamily=Helvetica;fontSize=11;fontColor=default;labelBackgroundColor=default;endFill=1;" edge="1" parent="t6atKej5fnVRMdNGpLLc-8" source="t6atKej5fnVRMdNGpLLc-9" target="t6atKej5fnVRMdNGpLLc-15">
          <mxGeometry width="50" height="50" relative="1" as="geometry">
            <mxPoint x="71.19047619047619" y="18" as="sourcePoint" />
            <mxPoint x="71.19047619047619" y="30" as="targetPoint" />
          </mxGeometry>
        </mxCell>
        <mxCell id="t6atKej5fnVRMdNGpLLc-18" value="" style="endArrow=block;html=1;rounded=0;exitX=0.93;exitY=0.361;exitDx=0;exitDy=0;entryX=-0.052;entryY=0.085;entryDx=0;entryDy=0;entryPerimeter=0;endSize=2;exitPerimeter=0;endFill=1;" edge="1" parent="t6atKej5fnVRMdNGpLLc-8" source="t6atKej5fnVRMdNGpLLc-11" target="t6atKej5fnVRMdNGpLLc-15">
          <mxGeometry width="50" height="50" relative="1" as="geometry">
            <mxPoint x="104.61904761904762" y="34.199999999999996" as="sourcePoint" />
            <mxPoint x="83.57142857142857" y="34.199999999999996" as="targetPoint" />
          </mxGeometry>
        </mxCell>
        <mxCell id="t6atKej5fnVRMdNGpLLc-19" value="" style="shape=parallelogram;html=1;strokeWidth=1;perimeter=parallelogramPerimeter;whiteSpace=wrap;rounded=1;arcSize=12;size=0.23;shadow=1;" vertex="1" parent="t6atKej5fnVRMdNGpLLc-8">
          <mxGeometry x="86.66666666666667" y="54" width="37.142857142857146" height="12" as="geometry" />
        </mxCell>
        <mxCell id="t6atKej5fnVRMdNGpLLc-20" value="" style="shape=parallelogram;html=1;strokeWidth=1;perimeter=parallelogramPerimeter;whiteSpace=wrap;rounded=1;arcSize=12;size=0.23;shadow=1;" vertex="1" parent="t6atKej5fnVRMdNGpLLc-8">
          <mxGeometry x="24.761904761904763" y="78" width="37.142857142857146" height="12" as="geometry" />
        </mxCell>
        <mxCell id="t6atKej5fnVRMdNGpLLc-21" value="" style="shape=parallelogram;html=1;strokeWidth=1;perimeter=parallelogramPerimeter;whiteSpace=wrap;rounded=1;arcSize=12;size=0.23;shadow=1;" vertex="1" parent="t6atKej5fnVRMdNGpLLc-8">
          <mxGeometry y="54" width="37.142857142857146" height="12" as="geometry" />
        </mxCell>
        <mxCell id="t6atKej5fnVRMdNGpLLc-22" value="" style="edgeStyle=isometricEdgeStyle;endArrow=none;html=1;elbow=vertical;rounded=0;entryX=1;entryY=0.5;entryDx=0;entryDy=0;exitX=1;exitY=0.5;exitDx=0;exitDy=0;" edge="1" parent="t6atKej5fnVRMdNGpLLc-8" source="t6atKej5fnVRMdNGpLLc-20" target="t6atKej5fnVRMdNGpLLc-20">
          <mxGeometry width="50" height="100" relative="1" as="geometry">
            <mxPoint x="83.57142857142857" y="102" as="sourcePoint" />
            <mxPoint x="114.52380952380953" y="42" as="targetPoint" />
            <Array as="points" />
          </mxGeometry>
        </mxCell>
        <mxCell id="t6atKej5fnVRMdNGpLLc-23" value="" style="endArrow=open;html=1;rounded=0;endSize=2;entryX=1;entryY=0.5;entryDx=0;entryDy=0;exitX=0.421;exitY=1.024;exitDx=0;exitDy=0;exitPerimeter=0;strokeColor=default;align=center;verticalAlign=middle;fontFamily=Helvetica;fontSize=11;fontColor=default;labelBackgroundColor=default;startArrow=open;startFill=0;startSize=2;endFill=0;" edge="1" parent="t6atKej5fnVRMdNGpLLc-8" source="t6atKej5fnVRMdNGpLLc-19" target="t6atKej5fnVRMdNGpLLc-20">
          <mxGeometry width="50" height="50" relative="1" as="geometry">
            <mxPoint x="111.42857142857143" y="60" as="sourcePoint" />
            <mxPoint x="88.58571428571423" y="42" as="targetPoint" />
            <Array as="points">
              <mxPoint x="92.85714285714286" y="84" />
            </Array>
          </mxGeometry>
        </mxCell>
        <mxCell id="t6atKej5fnVRMdNGpLLc-24" value="" style="endArrow=open;html=1;rounded=0;endSize=2;entryX=0;entryY=0.5;entryDx=0;entryDy=0;exitX=0.405;exitY=1.002;exitDx=0;exitDy=0;exitPerimeter=0;strokeColor=default;align=center;verticalAlign=middle;fontFamily=Helvetica;fontSize=11;fontColor=default;labelBackgroundColor=default;startArrow=open;startFill=0;startSize=2;endFill=0;" edge="1" parent="t6atKej5fnVRMdNGpLLc-8" source="t6atKej5fnVRMdNGpLLc-21" target="t6atKej5fnVRMdNGpLLc-20">
          <mxGeometry width="50" height="50" relative="1" as="geometry">
            <mxPoint x="53.23809523809524" y="54" as="sourcePoint" />
            <mxPoint x="45.19047619047619" y="42" as="targetPoint" />
            <Array as="points">
              <mxPoint y="84" />
            </Array>
          </mxGeometry>
        </mxCell>
        <mxCell id="t6atKej5fnVRMdNGpLLc-25" value="" style="endArrow=block;html=1;rounded=0;exitX=0.605;exitY=-0.013;exitDx=0;exitDy=0;exitPerimeter=0;entryX=0.326;entryY=1.008;entryDx=0;entryDy=0;entryPerimeter=0;endSize=2;strokeColor=default;align=center;verticalAlign=middle;fontFamily=Helvetica;fontSize=11;fontColor=default;labelBackgroundColor=default;endFill=1;" edge="1" parent="t6atKej5fnVRMdNGpLLc-8" source="t6atKej5fnVRMdNGpLLc-20" target="t6atKej5fnVRMdNGpLLc-15">
          <mxGeometry width="50" height="50" relative="1" as="geometry">
            <mxPoint x="68.0952380952381" y="108" as="sourcePoint" />
            <mxPoint x="58.80952380952381" y="55.199999999999996" as="targetPoint" />
          </mxGeometry>
        </mxCell>
        <mxCell id="t6atKej5fnVRMdNGpLLc-26" value="" style="endArrow=block;html=1;rounded=0;exitX=0;exitY=0.25;exitDx=0;exitDy=0;endSize=2;entryX=1.006;entryY=0.917;entryDx=0;entryDy=0;entryPerimeter=0;strokeColor=default;align=center;verticalAlign=middle;fontFamily=Helvetica;fontSize=11;fontColor=default;labelBackgroundColor=default;endFill=1;" edge="1" parent="t6atKej5fnVRMdNGpLLc-8" source="t6atKej5fnVRMdNGpLLc-19" target="t6atKej5fnVRMdNGpLLc-15">
          <mxGeometry width="50" height="50" relative="1" as="geometry">
            <mxPoint x="65" y="48" as="sourcePoint" />
            <mxPoint x="80.47619047619048" y="58.199999999999996" as="targetPoint" />
          </mxGeometry>
        </mxCell>
        <mxCell id="t6atKej5fnVRMdNGpLLc-27" value="" style="endArrow=block;html=1;rounded=0;exitX=0.93;exitY=0.361;exitDx=0;exitDy=0;entryX=0.047;entryY=0.917;entryDx=0;entryDy=0;entryPerimeter=0;endSize=2;exitPerimeter=0;strokeColor=default;align=center;verticalAlign=middle;fontFamily=Helvetica;fontSize=11;fontColor=default;labelBackgroundColor=default;endFill=1;" edge="1" parent="t6atKej5fnVRMdNGpLLc-8" source="t6atKej5fnVRMdNGpLLc-21" target="t6atKej5fnVRMdNGpLLc-15">
          <mxGeometry width="50" height="50" relative="1" as="geometry">
            <mxPoint x="98.42857142857143" y="64.2" as="sourcePoint" />
            <mxPoint x="48.285714285714285" y="58.199999999999996" as="targetPoint" />
          </mxGeometry>
        </mxCell>
        <mxCell id="t6atKej5fnVRMdNGpLLc-28" value="" style="endArrow=open;startArrow=open;html=1;rounded=0;entryX=0.5;entryY=1;entryDx=0;entryDy=0;exitX=0.5;exitY=0;exitDx=0;exitDy=0;endSize=2;startSize=2;startFill=0;endFill=0;" edge="1" parent="t6atKej5fnVRMdNGpLLc-8" source="t6atKej5fnVRMdNGpLLc-21" target="t6atKej5fnVRMdNGpLLc-11">
          <mxGeometry width="50" height="50" relative="1" as="geometry">
            <mxPoint x="12.380952380952381" y="60" as="sourcePoint" />
            <mxPoint x="43.333333333333336" y="30" as="targetPoint" />
          </mxGeometry>
        </mxCell>
        <mxCell id="t6atKej5fnVRMdNGpLLc-29" value="" style="endArrow=open;startArrow=open;html=1;rounded=0;entryX=0.409;entryY=0.996;entryDx=0;entryDy=0;exitX=0.572;exitY=0.009;exitDx=0;exitDy=0;endSize=2;startSize=2;startFill=0;endFill=0;entryPerimeter=0;exitPerimeter=0;" edge="1" parent="t6atKej5fnVRMdNGpLLc-8" source="t6atKej5fnVRMdNGpLLc-19" target="t6atKej5fnVRMdNGpLLc-9">
          <mxGeometry width="50" height="50" relative="1" as="geometry">
            <mxPoint x="111.31095238095239" y="54" as="sourcePoint" />
            <mxPoint x="111.31095238095239" y="36" as="targetPoint" />
          </mxGeometry>
        </mxCell>
        <mxCell id="t6atKej5fnVRMdNGpLLc-30" value="&lt;font size=&quot;1&quot; color=&quot;#475f75&quot;&gt;&lt;b style=&quot;&quot;&gt;UML Class Diagram&lt;/b&gt;&lt;/font&gt;" style="rounded=1;whiteSpace=wrap;html=1;arcSize=50;strokeColor=#475f75;fillColor=default;strokeWidth=1.5;" vertex="1" parent="1">
          <mxGeometry x="193" y="157" width="107" height="16" as="geometry" />
        </mxCell>
        <mxCell id="t6atKej5fnVRMdNGpLLc-31" value="&lt;font style=&quot;font-size: 14px; color: rgb(255, 255, 255);&quot;&gt;&lt;b style=&quot;&quot;&gt;PowerSupplyingPart&lt;/b&gt;&lt;/font&gt;" style="rounded=1;whiteSpace=wrap;html=1;arcSize=50;strokeColor=none;fillColor=#0C8CF2;strokeWidth=2;dashed=0;opacity=50;align=center;verticalAlign=middle;fontFamily=Helvetica;fontSize=12;fontColor=default;gradientColor=none;" vertex="1" parent="1">
          <mxGeometry x="40" y="80" width="160" height="40" as="geometry" />
        </mxCell>
        <mxCell id="t6atKej5fnVRMdNGpLLc-36" value="&lt;p style=&quot;margin:0px;margin-top:4px;text-align:center;&quot;&gt;&lt;i&gt;PowerSupplyingPart&lt;/i&gt;&lt;/p&gt;&lt;hr size=&quot;1&quot; style=&quot;border-style:solid;&quot;&gt;&lt;p style=&quot;margin: 0px 0px 0px 4px;&quot;&gt;&lt;span style=&quot;background-color: initial; color: light-dark(rgb(0, 0, 0), rgb(255, 255, 255));&quot;&gt;safetyLevel&lt;/span&gt;&lt;span style=&quot;background-color: initial; color: light-dark(rgb(0, 0, 0), rgb(255, 255, 255));&quot;&gt;:&lt;/span&gt;&lt;span style=&quot;background-color: initial; color: light-dark(rgb(0, 0, 0), rgb(255, 255, 255));&quot;&gt;&amp;nbsp;Enum&lt;/span&gt;&lt;/p&gt;&lt;div&gt;&lt;p style=&quot;margin: 0px 0px 0px 4px;&quot;&gt;maxSuppliedPower&lt;span style=&quot;background-color: initial;&quot;&gt;:&lt;/span&gt;&lt;span style=&quot;background-color: initial;&quot;&gt;&amp;nbsp;Float&lt;/span&gt;&lt;/p&gt;&lt;/div&gt;&lt;p style=&quot;margin: 0px 0px 0px 4px;&quot;&gt;rawMaterial&lt;span style=&quot;background-color: initial;&quot;&gt;:&lt;/span&gt;&lt;span style=&quot;background-color: initial;&quot;&gt;&amp;nbsp;String&lt;/span&gt;&lt;/p&gt;&lt;p style=&quot;margin: 0px 0px 0px 4px;&quot;&gt;maxCharge: Float&lt;/p&gt;&lt;p style=&quot;margin: 0px 0px 0px 4px;&quot;&gt;SoC: Float&lt;/p&gt;&lt;hr size=&quot;1&quot; style=&quot;border-style:solid;&quot;&gt;&lt;p style=&quot;margin:0px;margin-left:4px;&quot;&gt;startSupplying()&lt;/p&gt;&lt;p style=&quot;margin:0px;margin-left:4px;&quot;&gt;&lt;span style=&quot;background-color: transparent; color: light-dark(rgb(0, 0, 0), rgb(255, 255, 255));&quot;&gt;stopSupplying&lt;/span&gt;()&lt;/p&gt;&lt;p style=&quot;margin:0px;margin-left:4px;&quot;&gt;&lt;span style=&quot;background-color: rgb(255, 255, 255); text-align: center; text-wrap-mode: nowrap; color: light-dark(rgb(0, 0, 0), rgb(255, 255, 255));&quot;&gt;&lt;span style=&quot;background-color: transparent; color: light-dark(rgb(0, 0, 0), rgb(255, 255, 255)); text-align: left; text-wrap-mode: wrap;&quot;&gt;startCharging&lt;/span&gt;()&lt;/span&gt;&lt;/p&gt;&lt;p style=&quot;margin:0px;margin-left:4px;&quot;&gt;&lt;span style=&quot;background-color: rgb(255, 255, 255); text-align: center; text-wrap-mode: nowrap; color: light-dark(rgb(0, 0, 0), rgb(255, 255, 255));&quot;&gt;&lt;span style=&quot;text-align: left; text-wrap-mode: wrap; background-color: rgb(251, 251, 251);&quot;&gt;&lt;span style=&quot;background-color: rgb(255, 255, 255); color: light-dark(rgb(0, 0, 0), rgb(255, 255, 255));&quot;&gt;stopCharging&lt;/span&gt;()&lt;/span&gt;&lt;/span&gt;&lt;/p&gt;" style="verticalAlign=top;align=left;overflow=fill;html=1;whiteSpace=wrap;rounded=0;" vertex="1" parent="1">
          <mxGeometry x="325" y="240" width="170" height="180" as="geometry" />
        </mxCell>
        <mxCell id="t6atKej5fnVRMdNGpLLc-37" value="" style="rounded=1;whiteSpace=wrap;html=1;strokeColor=#475E75;fillColor=#F5F6F7;arcSize=24;absoluteArcSize=1;imageWidth=64;imageHeight=64;strokeWidth=1.5;" vertex="1" parent="1">
          <mxGeometry x="40" y="1260" width="740" height="510" as="geometry" />
        </mxCell>
        <mxCell id="t6atKej5fnVRMdNGpLLc-38" value="&lt;b&gt;Behavioral Model&lt;/b&gt;" style="rounded=1;whiteSpace=wrap;html=1;strokeWidth=1.5;arcSize=16;perimeterSpacing=0;absoluteArcSize=1;" vertex="1" parent="1">
          <mxGeometry x="50" y="1270" width="130" height="30" as="geometry" />
        </mxCell>
        <mxCell id="t6atKej5fnVRMdNGpLLc-39" value="" style="group;glass=0;shadow=0;" vertex="1" connectable="0" parent="1">
          <mxGeometry x="640" y="1280" width="130" height="90" as="geometry" />
        </mxCell>
        <mxCell id="t6atKej5fnVRMdNGpLLc-40" value="" style="shape=parallelogram;html=1;strokeWidth=1;perimeter=parallelogramPerimeter;whiteSpace=wrap;rounded=1;arcSize=12;size=0.23;shadow=0;" vertex="1" parent="t6atKej5fnVRMdNGpLLc-39">
          <mxGeometry x="92.85714285714286" y="24" width="37.142857142857146" height="12" as="geometry" />
        </mxCell>
        <mxCell id="t6atKej5fnVRMdNGpLLc-41" value="" style="shape=parallelogram;html=1;strokeWidth=1;perimeter=parallelogramPerimeter;whiteSpace=wrap;rounded=1;arcSize=12;size=0.23;shadow=0;fillColor=#000000;" vertex="1" parent="t6atKej5fnVRMdNGpLLc-39">
          <mxGeometry x="49.523809523809526" width="37.142857142857146" height="12" as="geometry" />
        </mxCell>
        <mxCell id="t6atKej5fnVRMdNGpLLc-42" value="" style="shape=parallelogram;html=1;strokeWidth=1;perimeter=parallelogramPerimeter;whiteSpace=wrap;rounded=1;arcSize=12;size=0.23;shadow=0;" vertex="1" parent="t6atKej5fnVRMdNGpLLc-39">
          <mxGeometry y="24" width="37.142857142857146" height="12" as="geometry" />
        </mxCell>
        <mxCell id="t6atKej5fnVRMdNGpLLc-43" value="" style="edgeStyle=isometricEdgeStyle;endArrow=none;html=1;elbow=vertical;rounded=0;entryX=1;entryY=0.5;entryDx=0;entryDy=0;exitX=1;exitY=0.5;exitDx=0;exitDy=0;" edge="1" parent="t6atKej5fnVRMdNGpLLc-39" source="t6atKej5fnVRMdNGpLLc-41" target="t6atKej5fnVRMdNGpLLc-41">
          <mxGeometry width="50" height="100" relative="1" as="geometry">
            <mxPoint x="89.76190476190476" y="72" as="sourcePoint" />
            <mxPoint x="120.71428571428572" y="12" as="targetPoint" />
            <Array as="points" />
          </mxGeometry>
        </mxCell>
        <mxCell id="t6atKej5fnVRMdNGpLLc-44" value="" style="endArrow=open;html=1;rounded=0;endSize=2;entryX=1;entryY=0.5;entryDx=0;entryDy=0;exitX=0.598;exitY=-0.024;exitDx=0;exitDy=0;exitPerimeter=0;startArrow=open;startFill=0;endFill=0;startSize=2;" edge="1" parent="t6atKej5fnVRMdNGpLLc-39" source="t6atKej5fnVRMdNGpLLc-40" target="t6atKej5fnVRMdNGpLLc-41">
          <mxGeometry width="50" height="50" relative="1" as="geometry">
            <mxPoint x="117.61904761904762" y="30" as="sourcePoint" />
            <mxPoint x="94.77619047619042" y="12" as="targetPoint" />
            <Array as="points">
              <mxPoint x="123.80952380952381" y="6" />
            </Array>
          </mxGeometry>
        </mxCell>
        <mxCell id="t6atKej5fnVRMdNGpLLc-45" value="" style="endArrow=open;html=1;rounded=0;endSize=2;entryX=0;entryY=0.5;entryDx=0;entryDy=0;exitX=0.5;exitY=0;exitDx=0;exitDy=0;strokeColor=default;align=center;verticalAlign=middle;fontFamily=Helvetica;fontSize=11;fontColor=default;labelBackgroundColor=default;startArrow=open;startFill=0;startSize=2;endFill=0;" edge="1" parent="t6atKej5fnVRMdNGpLLc-39" source="t6atKej5fnVRMdNGpLLc-42" target="t6atKej5fnVRMdNGpLLc-41">
          <mxGeometry width="50" height="50" relative="1" as="geometry">
            <mxPoint x="59.42857142857143" y="24" as="sourcePoint" />
            <mxPoint x="51.38095238095238" y="12" as="targetPoint" />
            <Array as="points">
              <mxPoint x="30.952380952380953" y="6" />
            </Array>
          </mxGeometry>
        </mxCell>
        <mxCell id="t6atKej5fnVRMdNGpLLc-46" value="" style="shape=cube;whiteSpace=wrap;html=1;boundedLbl=1;backgroundOutline=1;darkOpacity=0.05;darkOpacity2=0.1;size=10;shadow=1;" vertex="1" parent="t6atKej5fnVRMdNGpLLc-39">
          <mxGeometry x="52.61904761904762" y="25.2" width="24.761904761904763" height="36" as="geometry" />
        </mxCell>
        <mxCell id="t6atKej5fnVRMdNGpLLc-47" value="" style="endArrow=block;html=1;rounded=0;exitX=0.475;exitY=0.969;exitDx=0;exitDy=0;exitPerimeter=0;entryX=0.332;entryY=-0.012;entryDx=0;entryDy=0;entryPerimeter=0;endSize=2;strokeColor=default;align=center;verticalAlign=middle;fontFamily=Helvetica;fontSize=11;fontColor=default;labelBackgroundColor=default;endFill=1;" edge="1" parent="t6atKej5fnVRMdNGpLLc-39" source="t6atKej5fnVRMdNGpLLc-41" target="t6atKej5fnVRMdNGpLLc-46">
          <mxGeometry width="50" height="50" relative="1" as="geometry">
            <mxPoint x="74.28571428571429" y="78" as="sourcePoint" />
            <mxPoint x="105.23809523809524" y="48" as="targetPoint" />
          </mxGeometry>
        </mxCell>
        <mxCell id="t6atKej5fnVRMdNGpLLc-48" value="" style="endArrow=block;html=1;rounded=0;exitX=0;exitY=0.25;exitDx=0;exitDy=0;entryX=0.753;entryY=0.083;entryDx=0;entryDy=0;entryPerimeter=0;endSize=2;strokeColor=default;align=center;verticalAlign=middle;fontFamily=Helvetica;fontSize=11;fontColor=default;labelBackgroundColor=default;endFill=1;" edge="1" parent="t6atKej5fnVRMdNGpLLc-39" source="t6atKej5fnVRMdNGpLLc-40" target="t6atKej5fnVRMdNGpLLc-46">
          <mxGeometry width="50" height="50" relative="1" as="geometry">
            <mxPoint x="71.19047619047619" y="18" as="sourcePoint" />
            <mxPoint x="71.19047619047619" y="30" as="targetPoint" />
          </mxGeometry>
        </mxCell>
        <mxCell id="t6atKej5fnVRMdNGpLLc-49" value="" style="endArrow=block;html=1;rounded=0;exitX=0.93;exitY=0.361;exitDx=0;exitDy=0;entryX=-0.052;entryY=0.085;entryDx=0;entryDy=0;entryPerimeter=0;endSize=2;exitPerimeter=0;endFill=1;" edge="1" parent="t6atKej5fnVRMdNGpLLc-39" source="t6atKej5fnVRMdNGpLLc-42" target="t6atKej5fnVRMdNGpLLc-46">
          <mxGeometry width="50" height="50" relative="1" as="geometry">
            <mxPoint x="104.61904761904762" y="34.199999999999996" as="sourcePoint" />
            <mxPoint x="83.57142857142857" y="34.199999999999996" as="targetPoint" />
          </mxGeometry>
        </mxCell>
        <mxCell id="t6atKej5fnVRMdNGpLLc-50" value="" style="shape=parallelogram;html=1;strokeWidth=1;perimeter=parallelogramPerimeter;whiteSpace=wrap;rounded=1;arcSize=12;size=0.23;shadow=1;" vertex="1" parent="t6atKej5fnVRMdNGpLLc-39">
          <mxGeometry x="86.66666666666667" y="54" width="37.142857142857146" height="12" as="geometry" />
        </mxCell>
        <mxCell id="t6atKej5fnVRMdNGpLLc-51" value="" style="shape=parallelogram;html=1;strokeWidth=1;perimeter=parallelogramPerimeter;whiteSpace=wrap;rounded=1;arcSize=12;size=0.23;shadow=1;" vertex="1" parent="t6atKej5fnVRMdNGpLLc-39">
          <mxGeometry x="24.761904761904763" y="78" width="37.142857142857146" height="12" as="geometry" />
        </mxCell>
        <mxCell id="t6atKej5fnVRMdNGpLLc-52" value="" style="shape=parallelogram;html=1;strokeWidth=1;perimeter=parallelogramPerimeter;whiteSpace=wrap;rounded=1;arcSize=12;size=0.23;shadow=1;" vertex="1" parent="t6atKej5fnVRMdNGpLLc-39">
          <mxGeometry y="54" width="37.142857142857146" height="12" as="geometry" />
        </mxCell>
        <mxCell id="t6atKej5fnVRMdNGpLLc-53" value="" style="edgeStyle=isometricEdgeStyle;endArrow=none;html=1;elbow=vertical;rounded=0;entryX=1;entryY=0.5;entryDx=0;entryDy=0;exitX=1;exitY=0.5;exitDx=0;exitDy=0;" edge="1" parent="t6atKej5fnVRMdNGpLLc-39" source="t6atKej5fnVRMdNGpLLc-51" target="t6atKej5fnVRMdNGpLLc-51">
          <mxGeometry width="50" height="100" relative="1" as="geometry">
            <mxPoint x="83.57142857142857" y="102" as="sourcePoint" />
            <mxPoint x="114.52380952380953" y="42" as="targetPoint" />
            <Array as="points" />
          </mxGeometry>
        </mxCell>
        <mxCell id="t6atKej5fnVRMdNGpLLc-54" value="" style="endArrow=open;html=1;rounded=0;endSize=2;entryX=1;entryY=0.5;entryDx=0;entryDy=0;exitX=0.421;exitY=1.024;exitDx=0;exitDy=0;exitPerimeter=0;strokeColor=default;align=center;verticalAlign=middle;fontFamily=Helvetica;fontSize=11;fontColor=default;labelBackgroundColor=default;startArrow=open;startFill=0;startSize=2;endFill=0;" edge="1" parent="t6atKej5fnVRMdNGpLLc-39" source="t6atKej5fnVRMdNGpLLc-50" target="t6atKej5fnVRMdNGpLLc-51">
          <mxGeometry width="50" height="50" relative="1" as="geometry">
            <mxPoint x="111.42857142857143" y="60" as="sourcePoint" />
            <mxPoint x="88.58571428571423" y="42" as="targetPoint" />
            <Array as="points">
              <mxPoint x="92.85714285714286" y="84" />
            </Array>
          </mxGeometry>
        </mxCell>
        <mxCell id="t6atKej5fnVRMdNGpLLc-55" value="" style="endArrow=open;html=1;rounded=0;endSize=2;entryX=0;entryY=0.5;entryDx=0;entryDy=0;exitX=0.405;exitY=1.002;exitDx=0;exitDy=0;exitPerimeter=0;strokeColor=default;align=center;verticalAlign=middle;fontFamily=Helvetica;fontSize=11;fontColor=default;labelBackgroundColor=default;startArrow=open;startFill=0;startSize=2;endFill=0;" edge="1" parent="t6atKej5fnVRMdNGpLLc-39" source="t6atKej5fnVRMdNGpLLc-52" target="t6atKej5fnVRMdNGpLLc-51">
          <mxGeometry width="50" height="50" relative="1" as="geometry">
            <mxPoint x="53.23809523809524" y="54" as="sourcePoint" />
            <mxPoint x="45.19047619047619" y="42" as="targetPoint" />
            <Array as="points">
              <mxPoint y="84" />
            </Array>
          </mxGeometry>
        </mxCell>
        <mxCell id="t6atKej5fnVRMdNGpLLc-56" value="" style="endArrow=block;html=1;rounded=0;exitX=0.605;exitY=-0.013;exitDx=0;exitDy=0;exitPerimeter=0;entryX=0.326;entryY=1.008;entryDx=0;entryDy=0;entryPerimeter=0;endSize=2;strokeColor=default;align=center;verticalAlign=middle;fontFamily=Helvetica;fontSize=11;fontColor=default;labelBackgroundColor=default;endFill=1;" edge="1" parent="t6atKej5fnVRMdNGpLLc-39" source="t6atKej5fnVRMdNGpLLc-51" target="t6atKej5fnVRMdNGpLLc-46">
          <mxGeometry width="50" height="50" relative="1" as="geometry">
            <mxPoint x="68.0952380952381" y="108" as="sourcePoint" />
            <mxPoint x="58.80952380952381" y="55.199999999999996" as="targetPoint" />
          </mxGeometry>
        </mxCell>
        <mxCell id="t6atKej5fnVRMdNGpLLc-57" value="" style="endArrow=block;html=1;rounded=0;exitX=0;exitY=0.25;exitDx=0;exitDy=0;endSize=2;entryX=1.006;entryY=0.917;entryDx=0;entryDy=0;entryPerimeter=0;strokeColor=default;align=center;verticalAlign=middle;fontFamily=Helvetica;fontSize=11;fontColor=default;labelBackgroundColor=default;endFill=1;" edge="1" parent="t6atKej5fnVRMdNGpLLc-39" source="t6atKej5fnVRMdNGpLLc-50" target="t6atKej5fnVRMdNGpLLc-46">
          <mxGeometry width="50" height="50" relative="1" as="geometry">
            <mxPoint x="65" y="48" as="sourcePoint" />
            <mxPoint x="80.47619047619048" y="58.199999999999996" as="targetPoint" />
          </mxGeometry>
        </mxCell>
        <mxCell id="t6atKej5fnVRMdNGpLLc-58" value="" style="endArrow=block;html=1;rounded=0;exitX=0.93;exitY=0.361;exitDx=0;exitDy=0;entryX=0.047;entryY=0.917;entryDx=0;entryDy=0;entryPerimeter=0;endSize=2;exitPerimeter=0;strokeColor=default;align=center;verticalAlign=middle;fontFamily=Helvetica;fontSize=11;fontColor=default;labelBackgroundColor=default;endFill=1;" edge="1" parent="t6atKej5fnVRMdNGpLLc-39" source="t6atKej5fnVRMdNGpLLc-52" target="t6atKej5fnVRMdNGpLLc-46">
          <mxGeometry width="50" height="50" relative="1" as="geometry">
            <mxPoint x="98.42857142857143" y="64.2" as="sourcePoint" />
            <mxPoint x="48.285714285714285" y="58.199999999999996" as="targetPoint" />
          </mxGeometry>
        </mxCell>
        <mxCell id="t6atKej5fnVRMdNGpLLc-59" value="" style="endArrow=open;startArrow=open;html=1;rounded=0;entryX=0.5;entryY=1;entryDx=0;entryDy=0;exitX=0.5;exitY=0;exitDx=0;exitDy=0;endSize=2;startSize=2;startFill=0;endFill=0;" edge="1" parent="t6atKej5fnVRMdNGpLLc-39" source="t6atKej5fnVRMdNGpLLc-52" target="t6atKej5fnVRMdNGpLLc-42">
          <mxGeometry width="50" height="50" relative="1" as="geometry">
            <mxPoint x="12.380952380952381" y="60" as="sourcePoint" />
            <mxPoint x="43.333333333333336" y="30" as="targetPoint" />
          </mxGeometry>
        </mxCell>
        <mxCell id="t6atKej5fnVRMdNGpLLc-60" value="" style="endArrow=open;startArrow=open;html=1;rounded=0;entryX=0.409;entryY=0.996;entryDx=0;entryDy=0;exitX=0.572;exitY=0.009;exitDx=0;exitDy=0;endSize=2;startSize=2;startFill=0;endFill=0;entryPerimeter=0;exitPerimeter=0;" edge="1" parent="t6atKej5fnVRMdNGpLLc-39" source="t6atKej5fnVRMdNGpLLc-50" target="t6atKej5fnVRMdNGpLLc-40">
          <mxGeometry width="50" height="50" relative="1" as="geometry">
            <mxPoint x="111.31095238095239" y="54" as="sourcePoint" />
            <mxPoint x="111.31095238095239" y="36" as="targetPoint" />
          </mxGeometry>
        </mxCell>
        <mxCell id="t6atKej5fnVRMdNGpLLc-61" value="&lt;font size=&quot;1&quot; color=&quot;#475f75&quot;&gt;&lt;b style=&quot;&quot;&gt;UML State Diagram&lt;/b&gt;&lt;/font&gt;" style="rounded=1;whiteSpace=wrap;html=1;arcSize=50;strokeColor=#475f75;fillColor=default;strokeWidth=1.5;" vertex="1" parent="1">
          <mxGeometry x="193" y="1277" width="107" height="16" as="geometry" />
        </mxCell>
        <mxCell id="t6atKej5fnVRMdNGpLLc-62" value="" style="ellipse;html=1;shape=startState;fillColor=#000000;strokeColor=#ff0000;" vertex="1" parent="1">
          <mxGeometry x="145" y="1350" width="30" height="30" as="geometry" />
        </mxCell>
        <mxCell id="t6atKej5fnVRMdNGpLLc-63" value="" style="edgeStyle=orthogonalEdgeStyle;html=1;verticalAlign=bottom;endArrow=open;endSize=8;strokeColor=#ff0000;rounded=0;entryX=0.5;entryY=0;entryDx=0;entryDy=0;" edge="1" parent="1" source="t6atKej5fnVRMdNGpLLc-62">
          <mxGeometry relative="1" as="geometry">
            <mxPoint x="160" y="1440" as="targetPoint" />
          </mxGeometry>
        </mxCell>
        <mxCell id="t6atKej5fnVRMdNGpLLc-64" style="rounded=0;orthogonalLoop=1;jettySize=auto;html=1;entryX=0;entryY=0.25;entryDx=0;entryDy=0;endArrow=open;endFill=0;elbow=vertical;curved=1;exitX=0.5;exitY=0;exitDx=0;exitDy=0;" edge="1" parent="1" source="t6atKej5fnVRMdNGpLLc-80" target="t6atKej5fnVRMdNGpLLc-71">
          <mxGeometry relative="1" as="geometry">
            <Array as="points">
              <mxPoint x="260" y="1350" />
            </Array>
            <mxPoint x="178.18181818181824" y="1440" as="sourcePoint" />
          </mxGeometry>
        </mxCell>
        <mxCell id="t6atKej5fnVRMdNGpLLc-65" value="&lt;span style=&quot;font-size: 12px; text-align: left; text-wrap-mode: wrap;&quot;&gt;startSupplying&amp;nbsp;&lt;/span&gt;[pollSoC &amp;gt; 0]" style="edgeLabel;html=1;align=center;verticalAlign=middle;resizable=0;points=[];labelBackgroundColor=none;" vertex="1" connectable="0" parent="t6atKej5fnVRMdNGpLLc-64">
          <mxGeometry x="-0.204" y="-25" relative="1" as="geometry">
            <mxPoint x="3" y="-29" as="offset" />
          </mxGeometry>
        </mxCell>
        <mxCell id="t6atKej5fnVRMdNGpLLc-66" style="rounded=0;orthogonalLoop=1;jettySize=auto;html=1;entryX=0;entryY=0.5;entryDx=0;entryDy=0;curved=1;endArrow=open;endFill=0;exitX=0.46;exitY=0.994;exitDx=0;exitDy=0;exitPerimeter=0;" edge="1" parent="1" source="t6atKej5fnVRMdNGpLLc-80" target="t6atKej5fnVRMdNGpLLc-78">
          <mxGeometry relative="1" as="geometry">
            <Array as="points">
              <mxPoint x="200" y="1660" />
            </Array>
            <mxPoint x="159" y="1480" as="sourcePoint" />
          </mxGeometry>
        </mxCell>
        <mxCell id="t6atKej5fnVRMdNGpLLc-67" value="startCharging [SoC &amp;lt; MaxCharge]" style="edgeLabel;html=1;align=center;verticalAlign=middle;resizable=0;points=[];labelBackgroundColor=none;" vertex="1" connectable="0" parent="t6atKej5fnVRMdNGpLLc-66">
          <mxGeometry x="-0.2886" y="16" relative="1" as="geometry">
            <mxPoint x="26" y="17" as="offset" />
          </mxGeometry>
        </mxCell>
        <mxCell id="t6atKej5fnVRMdNGpLLc-69" style="rounded=0;orthogonalLoop=1;jettySize=auto;html=1;entryX=0.5;entryY=0;entryDx=0;entryDy=0;curved=0;endArrow=none;endFill=0;startArrow=open;startFill=0;" edge="1" parent="1" source="t6atKej5fnVRMdNGpLLc-71" target="t6atKej5fnVRMdNGpLLc-78">
          <mxGeometry relative="1" as="geometry">
            <Array as="points" />
          </mxGeometry>
        </mxCell>
        <mxCell id="t6atKej5fnVRMdNGpLLc-70" value="startSupplying" style="edgeLabel;html=1;align=center;verticalAlign=middle;resizable=0;points=[];labelBackgroundColor=none;" vertex="1" connectable="0" parent="t6atKej5fnVRMdNGpLLc-69">
          <mxGeometry x="-0.1328" y="-16" relative="1" as="geometry">
            <mxPoint x="-24" as="offset" />
          </mxGeometry>
        </mxCell>
        <mxCell id="t6atKej5fnVRMdNGpLLc-83" style="rounded=0;orthogonalLoop=1;jettySize=auto;html=1;exitX=0.25;exitY=1;exitDx=0;exitDy=0;entryX=1;entryY=0.25;entryDx=0;entryDy=0;endArrow=open;endFill=0;curved=1;" edge="1" parent="1" source="t6atKej5fnVRMdNGpLLc-71" target="t6atKej5fnVRMdNGpLLc-80">
          <mxGeometry relative="1" as="geometry">
            <Array as="points">
              <mxPoint x="410" y="1480" />
            </Array>
          </mxGeometry>
        </mxCell>
        <mxCell id="t6atKej5fnVRMdNGpLLc-84" value="stopSupplying" style="edgeLabel;html=1;align=center;verticalAlign=middle;resizable=0;points=[];labelBackgroundColor=none;" vertex="1" connectable="0" parent="t6atKej5fnVRMdNGpLLc-83">
          <mxGeometry x="-0.0011" y="-14" relative="1" as="geometry">
            <mxPoint x="-19" y="-23" as="offset" />
          </mxGeometry>
        </mxCell>
        <mxCell id="t6atKej5fnVRMdNGpLLc-71" value="&lt;p style=&quot;margin:0px;margin-top:4px;text-align:center;&quot;&gt;&lt;b&gt;Supplying&lt;/b&gt;&lt;/p&gt;&lt;hr size=&quot;1&quot; style=&quot;border-style:solid;&quot;&gt;&lt;p style=&quot;margin:0px;margin-left:4px;&quot;&gt;startSupplying/&lt;/p&gt;&lt;p style=&quot;margin:0px;margin-left:4px;&quot;&gt;&lt;br&gt;&lt;/p&gt;&lt;p style=&quot;margin:0px;margin-left:4px;&quot;&gt;&lt;br&gt;&lt;/p&gt;" style="verticalAlign=top;align=left;overflow=fill;html=1;whiteSpace=wrap;rounded=1;" vertex="1" parent="1">
          <mxGeometry x="400" y="1340" width="160" height="60" as="geometry" />
        </mxCell>
        <mxCell id="t6atKej5fnVRMdNGpLLc-72" style="rounded=0;orthogonalLoop=1;jettySize=auto;html=1;entryX=0.75;entryY=1;entryDx=0;entryDy=0;endArrow=none;endFill=0;curved=1;exitX=0.75;exitY=0;exitDx=0;exitDy=0;startArrow=open;startFill=0;" edge="1" parent="1" source="t6atKej5fnVRMdNGpLLc-78" target="t6atKej5fnVRMdNGpLLc-71">
          <mxGeometry relative="1" as="geometry">
            <Array as="points">
              <mxPoint x="610" y="1500" />
            </Array>
          </mxGeometry>
        </mxCell>
        <mxCell id="t6atKej5fnVRMdNGpLLc-73" value="&lt;span style=&quot;&quot;&gt;startCharging&lt;/span&gt;" style="edgeLabel;html=1;align=center;verticalAlign=middle;resizable=0;points=[];labelBackgroundColor=none;" vertex="1" connectable="0" parent="t6atKej5fnVRMdNGpLLc-72">
          <mxGeometry x="0.3499" y="40" relative="1" as="geometry">
            <mxPoint x="48" y="4" as="offset" />
          </mxGeometry>
        </mxCell>
        <mxCell id="t6atKej5fnVRMdNGpLLc-74" style="rounded=0;orthogonalLoop=1;jettySize=auto;html=1;entryX=1;entryY=0.75;entryDx=0;entryDy=0;curved=1;endArrow=open;endFill=0;" edge="1" parent="1" source="t6atKej5fnVRMdNGpLLc-78" target="t6atKej5fnVRMdNGpLLc-80">
          <mxGeometry relative="1" as="geometry">
            <Array as="points">
              <mxPoint x="410" y="1530" />
            </Array>
            <mxPoint x="210" y="1460" as="targetPoint" />
          </mxGeometry>
        </mxCell>
        <mxCell id="t6atKej5fnVRMdNGpLLc-75" value="&lt;div style=&quot;text-align: left;&quot;&gt;&lt;span style=&quot;font-size: 12px; text-wrap-mode: wrap;&quot;&gt;stopCharging&lt;/span&gt;&lt;/div&gt;" style="edgeLabel;html=1;align=center;verticalAlign=middle;resizable=0;points=[];labelBackgroundColor=none;" vertex="1" connectable="0" parent="t6atKej5fnVRMdNGpLLc-74">
          <mxGeometry x="-0.0983" y="8" relative="1" as="geometry">
            <mxPoint x="-47" y="22" as="offset" />
          </mxGeometry>
        </mxCell>
        <mxCell id="t6atKej5fnVRMdNGpLLc-85" style="rounded=0;orthogonalLoop=1;jettySize=auto;html=1;exitX=0.018;exitY=0.039;exitDx=0;exitDy=0;entryX=0.975;entryY=0.975;entryDx=0;entryDy=0;curved=1;endArrow=open;endFill=0;entryPerimeter=0;exitPerimeter=0;" edge="1" parent="1" source="t6atKej5fnVRMdNGpLLc-78" target="t6atKej5fnVRMdNGpLLc-80">
          <mxGeometry relative="1" as="geometry" />
        </mxCell>
        <mxCell id="t6atKej5fnVRMdNGpLLc-86" value="check&amp;nbsp;[SoC = MaxCharge]" style="edgeLabel;html=1;align=center;verticalAlign=middle;resizable=0;points=[];labelBackgroundColor=none;" vertex="1" connectable="0" parent="t6atKej5fnVRMdNGpLLc-85">
          <mxGeometry x="-0.0222" relative="1" as="geometry">
            <mxPoint x="-50" y="19" as="offset" />
          </mxGeometry>
        </mxCell>
        <mxCell id="t6atKej5fnVRMdNGpLLc-78" value="&lt;p style=&quot;margin:0px;margin-top:4px;text-align:center;&quot;&gt;&lt;b&gt;Charging&lt;/b&gt;&lt;/p&gt;&lt;hr size=&quot;1&quot; style=&quot;border-style:solid;&quot;&gt;&lt;p style=&quot;margin: 0px 0px 0px 4px;&quot;&gt;startCharging/&lt;/p&gt;&lt;div&gt;&lt;p style=&quot;margin: 0px 0px 0px 4px;&quot;&gt;&lt;br&gt;&lt;/p&gt;&lt;/div&gt;&lt;p style=&quot;margin: 0px 0px 0px 4px;&quot;&gt;&lt;br&gt;&lt;/p&gt;" style="verticalAlign=top;align=left;overflow=fill;html=1;whiteSpace=wrap;rounded=1;" vertex="1" parent="1">
          <mxGeometry x="400" y="1620" width="160" height="60" as="geometry" />
        </mxCell>
        <mxCell id="t6atKej5fnVRMdNGpLLc-80" value="&lt;p style=&quot;margin:0px;margin-top:4px;text-align:center;&quot;&gt;&lt;b&gt;Idle&lt;/b&gt;&lt;/p&gt;&lt;hr size=&quot;1&quot; style=&quot;border-style:solid;&quot;&gt;&lt;p style=&quot;margin: 0px 0px 0px 4px;&quot;&gt;startSupplying [SoC = 0]/&lt;/p&gt;&lt;p style=&quot;margin: 0px 0px 0px 4px;&quot;&gt;&lt;span style=&quot;color: light-dark(rgb(0, 0, 0), rgb(255, 255, 255)); background-color: transparent;&quot;&gt;startCharging&lt;/span&gt;&lt;span style=&quot;text-align: center; text-wrap-mode: nowrap; background-color: rgb(255, 255, 255);&quot;&gt;&amp;nbsp;[SoC = MaxCharge]/&lt;/span&gt;&lt;/p&gt;&lt;p style=&quot;margin: 0px 0px 0px 4px;&quot;&gt;&lt;span style=&quot;background-color: transparent; color: light-dark(rgb(0, 0, 0), rgb(255, 255, 255));&quot;&gt;stopSupplying&lt;/span&gt;/&lt;/p&gt;&lt;p style=&quot;margin: 0px 0px 0px 4px;&quot;&gt;&lt;span style=&quot;color: light-dark(rgb(0, 0, 0), rgb(255, 255, 255)); background-color: rgb(255, 255, 255);&quot;&gt;stopCharging&lt;/span&gt;&lt;span style=&quot;background-color: light-dark(rgb(251, 251, 251), rgb(21, 21, 21)); color: light-dark(rgb(0, 0, 0), rgb(255, 255, 255));&quot;&gt;/&lt;/span&gt;&lt;/p&gt;&lt;p style=&quot;margin:0px;margin-left:4px;&quot;&gt;&lt;br&gt;&lt;/p&gt;&lt;p style=&quot;margin:0px;margin-left:4px;&quot;&gt;&lt;br&gt;&lt;/p&gt;" style="verticalAlign=top;align=left;overflow=fill;html=1;whiteSpace=wrap;rounded=1;" vertex="1" parent="1">
          <mxGeometry x="80" y="1440" width="200" height="100" as="geometry" />
        </mxCell>
        <mxCell id="t6atKej5fnVRMdNGpLLc-81" style="rounded=0;orthogonalLoop=1;jettySize=auto;html=1;entryX=0.988;entryY=0.066;entryDx=0;entryDy=0;entryPerimeter=0;curved=1;endArrow=open;endFill=0;exitX=0.015;exitY=0.941;exitDx=0;exitDy=0;exitPerimeter=0;" edge="1" parent="1" source="t6atKej5fnVRMdNGpLLc-71" target="t6atKej5fnVRMdNGpLLc-80">
          <mxGeometry relative="1" as="geometry" />
        </mxCell>
        <mxCell id="t6atKej5fnVRMdNGpLLc-82" value="check [SoC = 0]" style="edgeLabel;html=1;align=center;verticalAlign=middle;resizable=0;points=[];labelBackgroundColor=none;" vertex="1" connectable="0" parent="t6atKej5fnVRMdNGpLLc-81">
          <mxGeometry x="-0.0291" y="-1" relative="1" as="geometry">
            <mxPoint x="-19" y="-16" as="offset" />
          </mxGeometry>
        </mxCell>
        <mxCell id="t6atKej5fnVRMdNGpLLc-87" value="&lt;font color=&quot;#0070f2&quot; face=&quot;arial&quot; style=&quot;font-size: 16px;&quot;&gt;&lt;b style=&quot;font-size: 16px;&quot;&gt;PoweSupplyingPart&lt;/b&gt;&lt;/font&gt;" style="text;html=1;align=left;verticalAlign=middle;resizable=0;points=[];autosize=1;strokeColor=none;fillColor=none;fontSize=12;fontColor=#1d2d3e;fontFamily=Helvetica;" vertex="1" parent="1">
          <mxGeometry x="50" y="1310" width="170" height="30" as="geometry" />
        </mxCell>
        <mxCell id="t6atKej5fnVRMdNGpLLc-88" value="" style="rounded=1;whiteSpace=wrap;html=1;strokeColor=#475E75;fillColor=#F5F6F7;arcSize=24;absoluteArcSize=1;imageWidth=64;imageHeight=64;strokeWidth=1.5;" vertex="1" parent="1">
          <mxGeometry x="40" y="2440" width="740" height="720" as="geometry" />
        </mxCell>
        <mxCell id="t6atKej5fnVRMdNGpLLc-89" value="&lt;b&gt;Behavioral Model&lt;/b&gt;" style="rounded=1;whiteSpace=wrap;html=1;strokeWidth=1.5;arcSize=16;perimeterSpacing=0;absoluteArcSize=1;" vertex="1" parent="1">
          <mxGeometry x="50" y="2450" width="130" height="30" as="geometry" />
        </mxCell>
        <mxCell id="t6atKej5fnVRMdNGpLLc-90" value="" style="group;glass=0;shadow=0;" vertex="1" connectable="0" parent="1">
          <mxGeometry x="640" y="2460" width="130" height="90" as="geometry" />
        </mxCell>
        <mxCell id="t6atKej5fnVRMdNGpLLc-91" value="" style="shape=parallelogram;html=1;strokeWidth=1;perimeter=parallelogramPerimeter;whiteSpace=wrap;rounded=1;arcSize=12;size=0.23;shadow=0;" vertex="1" parent="t6atKej5fnVRMdNGpLLc-90">
          <mxGeometry x="92.85714285714286" y="24" width="37.142857142857146" height="12" as="geometry" />
        </mxCell>
        <mxCell id="t6atKej5fnVRMdNGpLLc-92" value="" style="shape=parallelogram;html=1;strokeWidth=1;perimeter=parallelogramPerimeter;whiteSpace=wrap;rounded=1;arcSize=12;size=0.23;shadow=0;fillColor=#000000;" vertex="1" parent="t6atKej5fnVRMdNGpLLc-90">
          <mxGeometry x="49.523809523809526" width="37.142857142857146" height="12" as="geometry" />
        </mxCell>
        <mxCell id="t6atKej5fnVRMdNGpLLc-93" value="" style="shape=parallelogram;html=1;strokeWidth=1;perimeter=parallelogramPerimeter;whiteSpace=wrap;rounded=1;arcSize=12;size=0.23;shadow=0;" vertex="1" parent="t6atKej5fnVRMdNGpLLc-90">
          <mxGeometry y="24" width="37.142857142857146" height="12" as="geometry" />
        </mxCell>
        <mxCell id="t6atKej5fnVRMdNGpLLc-94" value="" style="edgeStyle=isometricEdgeStyle;endArrow=none;html=1;elbow=vertical;rounded=0;entryX=1;entryY=0.5;entryDx=0;entryDy=0;exitX=1;exitY=0.5;exitDx=0;exitDy=0;" edge="1" parent="t6atKej5fnVRMdNGpLLc-90" source="t6atKej5fnVRMdNGpLLc-92" target="t6atKej5fnVRMdNGpLLc-92">
          <mxGeometry width="50" height="100" relative="1" as="geometry">
            <mxPoint x="89.76190476190476" y="72" as="sourcePoint" />
            <mxPoint x="120.71428571428572" y="12" as="targetPoint" />
            <Array as="points" />
          </mxGeometry>
        </mxCell>
        <mxCell id="t6atKej5fnVRMdNGpLLc-95" value="" style="endArrow=open;html=1;rounded=0;endSize=2;entryX=1;entryY=0.5;entryDx=0;entryDy=0;exitX=0.598;exitY=-0.024;exitDx=0;exitDy=0;exitPerimeter=0;startArrow=open;startFill=0;endFill=0;startSize=2;" edge="1" parent="t6atKej5fnVRMdNGpLLc-90" source="t6atKej5fnVRMdNGpLLc-91" target="t6atKej5fnVRMdNGpLLc-92">
          <mxGeometry width="50" height="50" relative="1" as="geometry">
            <mxPoint x="117.61904761904762" y="30" as="sourcePoint" />
            <mxPoint x="94.77619047619042" y="12" as="targetPoint" />
            <Array as="points">
              <mxPoint x="123.80952380952381" y="6" />
            </Array>
          </mxGeometry>
        </mxCell>
        <mxCell id="t6atKej5fnVRMdNGpLLc-96" value="" style="endArrow=open;html=1;rounded=0;endSize=2;entryX=0;entryY=0.5;entryDx=0;entryDy=0;exitX=0.5;exitY=0;exitDx=0;exitDy=0;strokeColor=default;align=center;verticalAlign=middle;fontFamily=Helvetica;fontSize=11;fontColor=default;labelBackgroundColor=default;startArrow=open;startFill=0;startSize=2;endFill=0;" edge="1" parent="t6atKej5fnVRMdNGpLLc-90" source="t6atKej5fnVRMdNGpLLc-93" target="t6atKej5fnVRMdNGpLLc-92">
          <mxGeometry width="50" height="50" relative="1" as="geometry">
            <mxPoint x="59.42857142857143" y="24" as="sourcePoint" />
            <mxPoint x="51.38095238095238" y="12" as="targetPoint" />
            <Array as="points">
              <mxPoint x="30.952380952380953" y="6" />
            </Array>
          </mxGeometry>
        </mxCell>
        <mxCell id="t6atKej5fnVRMdNGpLLc-97" value="" style="shape=cube;whiteSpace=wrap;html=1;boundedLbl=1;backgroundOutline=1;darkOpacity=0.05;darkOpacity2=0.1;size=10;shadow=1;" vertex="1" parent="t6atKej5fnVRMdNGpLLc-90">
          <mxGeometry x="52.61904761904762" y="25.2" width="24.761904761904763" height="36" as="geometry" />
        </mxCell>
        <mxCell id="t6atKej5fnVRMdNGpLLc-98" value="" style="endArrow=block;html=1;rounded=0;exitX=0.475;exitY=0.969;exitDx=0;exitDy=0;exitPerimeter=0;entryX=0.332;entryY=-0.012;entryDx=0;entryDy=0;entryPerimeter=0;endSize=2;strokeColor=default;align=center;verticalAlign=middle;fontFamily=Helvetica;fontSize=11;fontColor=default;labelBackgroundColor=default;endFill=1;" edge="1" parent="t6atKej5fnVRMdNGpLLc-90" source="t6atKej5fnVRMdNGpLLc-92" target="t6atKej5fnVRMdNGpLLc-97">
          <mxGeometry width="50" height="50" relative="1" as="geometry">
            <mxPoint x="74.28571428571429" y="78" as="sourcePoint" />
            <mxPoint x="105.23809523809524" y="48" as="targetPoint" />
          </mxGeometry>
        </mxCell>
        <mxCell id="t6atKej5fnVRMdNGpLLc-99" value="" style="endArrow=block;html=1;rounded=0;exitX=0;exitY=0.25;exitDx=0;exitDy=0;entryX=0.753;entryY=0.083;entryDx=0;entryDy=0;entryPerimeter=0;endSize=2;strokeColor=default;align=center;verticalAlign=middle;fontFamily=Helvetica;fontSize=11;fontColor=default;labelBackgroundColor=default;endFill=1;" edge="1" parent="t6atKej5fnVRMdNGpLLc-90" source="t6atKej5fnVRMdNGpLLc-91" target="t6atKej5fnVRMdNGpLLc-97">
          <mxGeometry width="50" height="50" relative="1" as="geometry">
            <mxPoint x="71.19047619047619" y="18" as="sourcePoint" />
            <mxPoint x="71.19047619047619" y="30" as="targetPoint" />
          </mxGeometry>
        </mxCell>
        <mxCell id="t6atKej5fnVRMdNGpLLc-100" value="" style="endArrow=block;html=1;rounded=0;exitX=0.93;exitY=0.361;exitDx=0;exitDy=0;entryX=-0.052;entryY=0.085;entryDx=0;entryDy=0;entryPerimeter=0;endSize=2;exitPerimeter=0;endFill=1;" edge="1" parent="t6atKej5fnVRMdNGpLLc-90" source="t6atKej5fnVRMdNGpLLc-93" target="t6atKej5fnVRMdNGpLLc-97">
          <mxGeometry width="50" height="50" relative="1" as="geometry">
            <mxPoint x="104.61904761904762" y="34.199999999999996" as="sourcePoint" />
            <mxPoint x="83.57142857142857" y="34.199999999999996" as="targetPoint" />
          </mxGeometry>
        </mxCell>
        <mxCell id="t6atKej5fnVRMdNGpLLc-101" value="" style="shape=parallelogram;html=1;strokeWidth=1;perimeter=parallelogramPerimeter;whiteSpace=wrap;rounded=1;arcSize=12;size=0.23;shadow=1;" vertex="1" parent="t6atKej5fnVRMdNGpLLc-90">
          <mxGeometry x="86.66666666666667" y="54" width="37.142857142857146" height="12" as="geometry" />
        </mxCell>
        <mxCell id="t6atKej5fnVRMdNGpLLc-102" value="" style="shape=parallelogram;html=1;strokeWidth=1;perimeter=parallelogramPerimeter;whiteSpace=wrap;rounded=1;arcSize=12;size=0.23;shadow=1;" vertex="1" parent="t6atKej5fnVRMdNGpLLc-90">
          <mxGeometry x="24.761904761904763" y="78" width="37.142857142857146" height="12" as="geometry" />
        </mxCell>
        <mxCell id="t6atKej5fnVRMdNGpLLc-103" value="" style="shape=parallelogram;html=1;strokeWidth=1;perimeter=parallelogramPerimeter;whiteSpace=wrap;rounded=1;arcSize=12;size=0.23;shadow=1;" vertex="1" parent="t6atKej5fnVRMdNGpLLc-90">
          <mxGeometry y="54" width="37.142857142857146" height="12" as="geometry" />
        </mxCell>
        <mxCell id="t6atKej5fnVRMdNGpLLc-104" value="" style="edgeStyle=isometricEdgeStyle;endArrow=none;html=1;elbow=vertical;rounded=0;entryX=1;entryY=0.5;entryDx=0;entryDy=0;exitX=1;exitY=0.5;exitDx=0;exitDy=0;" edge="1" parent="t6atKej5fnVRMdNGpLLc-90" source="t6atKej5fnVRMdNGpLLc-102" target="t6atKej5fnVRMdNGpLLc-102">
          <mxGeometry width="50" height="100" relative="1" as="geometry">
            <mxPoint x="83.57142857142857" y="102" as="sourcePoint" />
            <mxPoint x="114.52380952380953" y="42" as="targetPoint" />
            <Array as="points" />
          </mxGeometry>
        </mxCell>
        <mxCell id="t6atKej5fnVRMdNGpLLc-105" value="" style="endArrow=open;html=1;rounded=0;endSize=2;entryX=1;entryY=0.5;entryDx=0;entryDy=0;exitX=0.421;exitY=1.024;exitDx=0;exitDy=0;exitPerimeter=0;strokeColor=default;align=center;verticalAlign=middle;fontFamily=Helvetica;fontSize=11;fontColor=default;labelBackgroundColor=default;startArrow=open;startFill=0;startSize=2;endFill=0;" edge="1" parent="t6atKej5fnVRMdNGpLLc-90" source="t6atKej5fnVRMdNGpLLc-101" target="t6atKej5fnVRMdNGpLLc-102">
          <mxGeometry width="50" height="50" relative="1" as="geometry">
            <mxPoint x="111.42857142857143" y="60" as="sourcePoint" />
            <mxPoint x="88.58571428571423" y="42" as="targetPoint" />
            <Array as="points">
              <mxPoint x="92.85714285714286" y="84" />
            </Array>
          </mxGeometry>
        </mxCell>
        <mxCell id="t6atKej5fnVRMdNGpLLc-106" value="" style="endArrow=open;html=1;rounded=0;endSize=2;entryX=0;entryY=0.5;entryDx=0;entryDy=0;exitX=0.405;exitY=1.002;exitDx=0;exitDy=0;exitPerimeter=0;strokeColor=default;align=center;verticalAlign=middle;fontFamily=Helvetica;fontSize=11;fontColor=default;labelBackgroundColor=default;startArrow=open;startFill=0;startSize=2;endFill=0;" edge="1" parent="t6atKej5fnVRMdNGpLLc-90" source="t6atKej5fnVRMdNGpLLc-103" target="t6atKej5fnVRMdNGpLLc-102">
          <mxGeometry width="50" height="50" relative="1" as="geometry">
            <mxPoint x="53.23809523809524" y="54" as="sourcePoint" />
            <mxPoint x="45.19047619047619" y="42" as="targetPoint" />
            <Array as="points">
              <mxPoint y="84" />
            </Array>
          </mxGeometry>
        </mxCell>
        <mxCell id="t6atKej5fnVRMdNGpLLc-107" value="" style="endArrow=block;html=1;rounded=0;exitX=0.605;exitY=-0.013;exitDx=0;exitDy=0;exitPerimeter=0;entryX=0.326;entryY=1.008;entryDx=0;entryDy=0;entryPerimeter=0;endSize=2;strokeColor=default;align=center;verticalAlign=middle;fontFamily=Helvetica;fontSize=11;fontColor=default;labelBackgroundColor=default;endFill=1;" edge="1" parent="t6atKej5fnVRMdNGpLLc-90" source="t6atKej5fnVRMdNGpLLc-102" target="t6atKej5fnVRMdNGpLLc-97">
          <mxGeometry width="50" height="50" relative="1" as="geometry">
            <mxPoint x="68.0952380952381" y="108" as="sourcePoint" />
            <mxPoint x="58.80952380952381" y="55.199999999999996" as="targetPoint" />
          </mxGeometry>
        </mxCell>
        <mxCell id="t6atKej5fnVRMdNGpLLc-108" value="" style="endArrow=block;html=1;rounded=0;exitX=0;exitY=0.25;exitDx=0;exitDy=0;endSize=2;entryX=1.006;entryY=0.917;entryDx=0;entryDy=0;entryPerimeter=0;strokeColor=default;align=center;verticalAlign=middle;fontFamily=Helvetica;fontSize=11;fontColor=default;labelBackgroundColor=default;endFill=1;" edge="1" parent="t6atKej5fnVRMdNGpLLc-90" source="t6atKej5fnVRMdNGpLLc-101" target="t6atKej5fnVRMdNGpLLc-97">
          <mxGeometry width="50" height="50" relative="1" as="geometry">
            <mxPoint x="65" y="48" as="sourcePoint" />
            <mxPoint x="80.47619047619048" y="58.199999999999996" as="targetPoint" />
          </mxGeometry>
        </mxCell>
        <mxCell id="t6atKej5fnVRMdNGpLLc-109" value="" style="endArrow=block;html=1;rounded=0;exitX=0.93;exitY=0.361;exitDx=0;exitDy=0;entryX=0.047;entryY=0.917;entryDx=0;entryDy=0;entryPerimeter=0;endSize=2;exitPerimeter=0;strokeColor=default;align=center;verticalAlign=middle;fontFamily=Helvetica;fontSize=11;fontColor=default;labelBackgroundColor=default;endFill=1;" edge="1" parent="t6atKej5fnVRMdNGpLLc-90" source="t6atKej5fnVRMdNGpLLc-103" target="t6atKej5fnVRMdNGpLLc-97">
          <mxGeometry width="50" height="50" relative="1" as="geometry">
            <mxPoint x="98.42857142857143" y="64.2" as="sourcePoint" />
            <mxPoint x="48.285714285714285" y="58.199999999999996" as="targetPoint" />
          </mxGeometry>
        </mxCell>
        <mxCell id="t6atKej5fnVRMdNGpLLc-110" value="" style="endArrow=open;startArrow=open;html=1;rounded=0;entryX=0.5;entryY=1;entryDx=0;entryDy=0;exitX=0.5;exitY=0;exitDx=0;exitDy=0;endSize=2;startSize=2;startFill=0;endFill=0;" edge="1" parent="t6atKej5fnVRMdNGpLLc-90" source="t6atKej5fnVRMdNGpLLc-103" target="t6atKej5fnVRMdNGpLLc-93">
          <mxGeometry width="50" height="50" relative="1" as="geometry">
            <mxPoint x="12.380952380952381" y="60" as="sourcePoint" />
            <mxPoint x="43.333333333333336" y="30" as="targetPoint" />
          </mxGeometry>
        </mxCell>
        <mxCell id="t6atKej5fnVRMdNGpLLc-111" value="" style="endArrow=open;startArrow=open;html=1;rounded=0;entryX=0.409;entryY=0.996;entryDx=0;entryDy=0;exitX=0.572;exitY=0.009;exitDx=0;exitDy=0;endSize=2;startSize=2;startFill=0;endFill=0;entryPerimeter=0;exitPerimeter=0;" edge="1" parent="t6atKej5fnVRMdNGpLLc-90" source="t6atKej5fnVRMdNGpLLc-101" target="t6atKej5fnVRMdNGpLLc-91">
          <mxGeometry width="50" height="50" relative="1" as="geometry">
            <mxPoint x="111.31095238095239" y="54" as="sourcePoint" />
            <mxPoint x="111.31095238095239" y="36" as="targetPoint" />
          </mxGeometry>
        </mxCell>
        <mxCell id="t6atKej5fnVRMdNGpLLc-112" value="&lt;font size=&quot;1&quot; color=&quot;#475f75&quot;&gt;&lt;b style=&quot;&quot;&gt;UML State Diagram&lt;/b&gt;&lt;/font&gt;" style="rounded=1;whiteSpace=wrap;html=1;arcSize=50;strokeColor=#475f75;fillColor=default;strokeWidth=1.5;" vertex="1" parent="1">
          <mxGeometry x="193" y="2457" width="107" height="16" as="geometry" />
        </mxCell>
        <mxCell id="t6atKej5fnVRMdNGpLLc-113" value="" style="ellipse;html=1;shape=startState;fillColor=#000000;strokeColor=#ff0000;" vertex="1" parent="1">
          <mxGeometry x="70" y="2690" width="30" height="30" as="geometry" />
        </mxCell>
        <mxCell id="t6atKej5fnVRMdNGpLLc-114" value="" style="edgeStyle=orthogonalEdgeStyle;html=1;verticalAlign=bottom;endArrow=open;endSize=8;strokeColor=#ff0000;rounded=0;entryX=0.5;entryY=0;entryDx=0;entryDy=0;" edge="1" parent="1" source="t6atKej5fnVRMdNGpLLc-113">
          <mxGeometry relative="1" as="geometry">
            <mxPoint x="85" y="2780" as="targetPoint" />
          </mxGeometry>
        </mxCell>
        <mxCell id="t6atKej5fnVRMdNGpLLc-131" value="&lt;p style=&quot;margin:0px;margin-top:4px;text-align:center;&quot;&gt;&lt;b&gt;Idle&lt;/b&gt;&lt;/p&gt;&lt;hr size=&quot;1&quot; style=&quot;border-style:solid;&quot;&gt;&lt;p style=&quot;margin: 0px 0px 0px 4px;&quot;&gt;startSupplying [B1.SoC = 0 and B2.SoC = 0]/&lt;/p&gt;&lt;p style=&quot;margin: 0px 0px 0px 4px;&quot;&gt;&lt;span style=&quot;color: light-dark(rgb(0, 0, 0), rgb(255, 255, 255)); background-color: transparent;&quot;&gt;startCharging&lt;/span&gt;&lt;span style=&quot;text-align: center; text-wrap-mode: nowrap; background-color: rgb(255, 255, 255);&quot;&gt;&amp;nbsp;[&lt;span style=&quot;text-align: left; text-wrap-mode: wrap; background-color: rgb(251, 251, 251);&quot;&gt;B1.SoC =&amp;nbsp;&lt;/span&gt;MaxCharge&lt;span style=&quot;text-align: left; text-wrap-mode: wrap; background-color: rgb(251, 251, 251);&quot;&gt;&amp;nbsp;and B2.SoC =&lt;/span&gt;&amp;nbsp;MaxCharge]/&lt;/span&gt;&lt;/p&gt;&lt;p style=&quot;margin: 0px 0px 0px 4px;&quot;&gt;&lt;span style=&quot;background-color: transparent; color: light-dark(rgb(0, 0, 0), rgb(255, 255, 255));&quot;&gt;stopSupplying&lt;/span&gt;/&lt;/p&gt;&lt;p style=&quot;margin: 0px 0px 0px 4px;&quot;&gt;&lt;span style=&quot;color: light-dark(rgb(0, 0, 0), rgb(255, 255, 255)); background-color: rgb(255, 255, 255);&quot;&gt;stopCharging&lt;/span&gt;&lt;span style=&quot;background-color: light-dark(rgb(251, 251, 251), rgb(21, 21, 21)); color: light-dark(rgb(0, 0, 0), rgb(255, 255, 255));&quot;&gt;/&lt;/span&gt;&lt;/p&gt;&lt;p style=&quot;margin:0px;margin-left:4px;&quot;&gt;&lt;br&gt;&lt;/p&gt;&lt;p style=&quot;margin:0px;margin-left:4px;&quot;&gt;&lt;br&gt;&lt;/p&gt;" style="verticalAlign=top;align=left;overflow=fill;html=1;whiteSpace=wrap;rounded=1;" vertex="1" parent="1">
          <mxGeometry x="80" y="2780" width="360" height="100" as="geometry" />
        </mxCell>
        <mxCell id="t6atKej5fnVRMdNGpLLc-134" value="&lt;font color=&quot;#0070f2&quot; face=&quot;arial&quot; style=&quot;font-size: 16px;&quot;&gt;&lt;b style=&quot;font-size: 16px;&quot;&gt;BatteryPack&lt;/b&gt;&lt;/font&gt;" style="text;html=1;align=left;verticalAlign=middle;resizable=0;points=[];autosize=1;strokeColor=none;fillColor=none;fontSize=12;fontColor=#1d2d3e;fontFamily=Helvetica;" vertex="1" parent="1">
          <mxGeometry x="50" y="2490" width="120" height="30" as="geometry" />
        </mxCell>
        <mxCell id="t6atKej5fnVRMdNGpLLc-146" value="" style="group" vertex="1" connectable="0" parent="1">
          <mxGeometry x="510" y="2570" width="210" height="150" as="geometry" />
        </mxCell>
        <mxCell id="t6atKej5fnVRMdNGpLLc-123" value="&lt;p style=&quot;margin:0px;margin-top:4px;text-align:center;&quot;&gt;&lt;b&gt;Supplying&lt;/b&gt;&lt;/p&gt;&lt;hr size=&quot;1&quot; style=&quot;border-style:solid;&quot;&gt;&lt;p style=&quot;margin:0px;margin-left:4px;&quot;&gt;&lt;br&gt;&lt;/p&gt;&lt;p style=&quot;margin:0px;margin-left:4px;&quot;&gt;&lt;br&gt;&lt;/p&gt;&lt;p style=&quot;margin:0px;margin-left:4px;&quot;&gt;&lt;br&gt;&lt;/p&gt;" style="verticalAlign=top;align=left;overflow=fill;html=1;whiteSpace=wrap;rounded=1;" vertex="1" parent="t6atKej5fnVRMdNGpLLc-146">
          <mxGeometry x="30" width="210" height="150" as="geometry" />
        </mxCell>
        <mxCell id="t6atKej5fnVRMdNGpLLc-162" style="edgeStyle=orthogonalEdgeStyle;rounded=0;orthogonalLoop=1;jettySize=auto;html=1;exitX=1;exitY=0.5;exitDx=0;exitDy=0;entryX=0.25;entryY=1;entryDx=0;entryDy=0;strokeColor=default;align=center;verticalAlign=middle;fontFamily=Helvetica;fontSize=11;fontColor=default;labelBackgroundColor=default;endArrow=open;endFill=0;" edge="1" parent="t6atKej5fnVRMdNGpLLc-146" source="t6atKej5fnVRMdNGpLLc-137" target="t6atKej5fnVRMdNGpLLc-138">
          <mxGeometry relative="1" as="geometry" />
        </mxCell>
        <mxCell id="t6atKej5fnVRMdNGpLLc-137" value="B1-Supplying" style="rounded=1;whiteSpace=wrap;html=1;" vertex="1" parent="t6atKej5fnVRMdNGpLLc-146">
          <mxGeometry x="44" y="80" width="86" height="30" as="geometry" />
        </mxCell>
        <mxCell id="t6atKej5fnVRMdNGpLLc-138" value="B2-Supplying" style="rounded=1;whiteSpace=wrap;html=1;" vertex="1" parent="t6atKej5fnVRMdNGpLLc-146">
          <mxGeometry x="140" y="40" width="80" height="30" as="geometry" />
        </mxCell>
        <mxCell id="t6atKej5fnVRMdNGpLLc-147" value="" style="group" vertex="1" connectable="0" parent="1">
          <mxGeometry x="540" y="2970" width="210" height="150" as="geometry" />
        </mxCell>
        <mxCell id="t6atKej5fnVRMdNGpLLc-143" value="&lt;p style=&quot;margin:0px;margin-top:4px;text-align:center;&quot;&gt;&lt;b&gt;Charging&lt;/b&gt;&lt;/p&gt;&lt;hr size=&quot;1&quot; style=&quot;border-style:solid;&quot;&gt;&lt;p style=&quot;margin:0px;margin-left:4px;&quot;&gt;&lt;br&gt;&lt;/p&gt;&lt;p style=&quot;margin:0px;margin-left:4px;&quot;&gt;&lt;br&gt;&lt;/p&gt;&lt;p style=&quot;margin:0px;margin-left:4px;&quot;&gt;&lt;br&gt;&lt;/p&gt;" style="verticalAlign=top;align=left;overflow=fill;html=1;whiteSpace=wrap;rounded=1;" vertex="1" parent="t6atKej5fnVRMdNGpLLc-147">
          <mxGeometry width="210" height="150" as="geometry" />
        </mxCell>
        <mxCell id="t6atKej5fnVRMdNGpLLc-144" value="B1-Charging" style="rounded=1;whiteSpace=wrap;html=1;" vertex="1" parent="t6atKej5fnVRMdNGpLLc-147">
          <mxGeometry x="17" y="40" width="86" height="30" as="geometry" />
        </mxCell>
        <mxCell id="t6atKej5fnVRMdNGpLLc-145" value="B2-Charging" style="rounded=1;whiteSpace=wrap;html=1;" vertex="1" parent="t6atKej5fnVRMdNGpLLc-147">
          <mxGeometry x="110" y="90" width="80" height="30" as="geometry" />
        </mxCell>
        <mxCell id="t6atKej5fnVRMdNGpLLc-150" style="edgeStyle=orthogonalEdgeStyle;rounded=0;orthogonalLoop=1;jettySize=auto;html=1;exitX=0.043;exitY=0.977;exitDx=0;exitDy=0;entryX=0.393;entryY=-0.004;entryDx=0;entryDy=0;endArrow=open;endFill=0;exitPerimeter=0;entryPerimeter=0;" edge="1" parent="1" source="t6atKej5fnVRMdNGpLLc-123" target="t6atKej5fnVRMdNGpLLc-131">
          <mxGeometry relative="1" as="geometry" />
        </mxCell>
        <mxCell id="t6atKej5fnVRMdNGpLLc-171" value="stopSupplying" style="edgeLabel;html=1;align=center;verticalAlign=middle;resizable=0;points=[];labelBackgroundColor=none;" vertex="1" connectable="0" parent="t6atKej5fnVRMdNGpLLc-150">
          <mxGeometry x="-0.163" y="1" relative="1" as="geometry">
            <mxPoint y="-9" as="offset" />
          </mxGeometry>
        </mxCell>
        <mxCell id="t6atKej5fnVRMdNGpLLc-151" style="edgeStyle=orthogonalEdgeStyle;rounded=0;orthogonalLoop=1;jettySize=auto;html=1;exitX=0.001;exitY=0.137;exitDx=0;exitDy=0;entryX=0.1;entryY=0;entryDx=0;entryDy=0;exitPerimeter=0;strokeColor=default;align=center;verticalAlign=middle;fontFamily=Helvetica;fontSize=11;fontColor=default;labelBackgroundColor=default;endArrow=open;endFill=0;entryPerimeter=0;" edge="1" parent="1" source="t6atKej5fnVRMdNGpLLc-123" target="t6atKej5fnVRMdNGpLLc-131">
          <mxGeometry relative="1" as="geometry" />
        </mxCell>
        <mxCell id="t6atKej5fnVRMdNGpLLc-167" value="checkSoC [B1.SoC = 0 and B2.SoC = 0]" style="edgeLabel;html=1;align=center;verticalAlign=middle;resizable=0;points=[];labelBackgroundColor=none;" vertex="1" connectable="0" parent="t6atKej5fnVRMdNGpLLc-151">
          <mxGeometry x="-0.2819" relative="1" as="geometry">
            <mxPoint y="-9" as="offset" />
          </mxGeometry>
        </mxCell>
        <mxCell id="t6atKej5fnVRMdNGpLLc-152" style="edgeStyle=orthogonalEdgeStyle;rounded=0;orthogonalLoop=1;jettySize=auto;html=1;exitX=0;exitY=0.5;exitDx=0;exitDy=0;entryX=0.287;entryY=0.002;entryDx=0;entryDy=0;endArrow=none;endFill=0;startArrow=open;startFill=0;entryPerimeter=0;" edge="1" parent="1" source="t6atKej5fnVRMdNGpLLc-137" target="t6atKej5fnVRMdNGpLLc-131">
          <mxGeometry relative="1" as="geometry" />
        </mxCell>
        <mxCell id="t6atKej5fnVRMdNGpLLc-170" value="startSupplying [B1.SoC &amp;gt; 0]" style="edgeLabel;html=1;align=center;verticalAlign=middle;resizable=0;points=[];labelBackgroundColor=none;" vertex="1" connectable="0" parent="t6atKej5fnVRMdNGpLLc-152">
          <mxGeometry x="-0.1735" y="1" relative="1" as="geometry">
            <mxPoint y="-9" as="offset" />
          </mxGeometry>
        </mxCell>
        <mxCell id="t6atKej5fnVRMdNGpLLc-153" style="edgeStyle=orthogonalEdgeStyle;rounded=0;orthogonalLoop=1;jettySize=auto;html=1;exitX=0;exitY=0.5;exitDx=0;exitDy=0;entryX=0.187;entryY=-0.004;entryDx=0;entryDy=0;entryPerimeter=0;strokeColor=default;align=center;verticalAlign=middle;fontFamily=Helvetica;fontSize=11;fontColor=default;labelBackgroundColor=default;endArrow=none;endFill=0;startArrow=open;startFill=0;" edge="1" parent="1" source="t6atKej5fnVRMdNGpLLc-138" target="t6atKej5fnVRMdNGpLLc-131">
          <mxGeometry relative="1" as="geometry" />
        </mxCell>
        <mxCell id="t6atKej5fnVRMdNGpLLc-169" value="startSupplying [B01.SoC = 0 and B2.SoC &amp;gt; 0]" style="edgeLabel;html=1;align=center;verticalAlign=middle;resizable=0;points=[];labelBackgroundColor=none;" vertex="1" connectable="0" parent="t6atKej5fnVRMdNGpLLc-153">
          <mxGeometry x="-0.057" y="1" relative="1" as="geometry">
            <mxPoint y="-9" as="offset" />
          </mxGeometry>
        </mxCell>
        <mxCell id="t6atKej5fnVRMdNGpLLc-158" style="edgeStyle=orthogonalEdgeStyle;rounded=0;orthogonalLoop=1;jettySize=auto;html=1;exitX=0.01;exitY=0.097;exitDx=0;exitDy=0;entryX=0.397;entryY=1.004;entryDx=0;entryDy=0;exitPerimeter=0;strokeColor=default;align=center;verticalAlign=middle;fontFamily=Helvetica;fontSize=11;fontColor=default;labelBackgroundColor=default;endArrow=open;endFill=0;entryPerimeter=0;" edge="1" parent="1" source="t6atKej5fnVRMdNGpLLc-143" target="t6atKej5fnVRMdNGpLLc-131">
          <mxGeometry relative="1" as="geometry" />
        </mxCell>
        <mxCell id="t6atKej5fnVRMdNGpLLc-172" value="stopCharging" style="edgeLabel;html=1;align=center;verticalAlign=middle;resizable=0;points=[];labelBackgroundColor=none;" vertex="1" connectable="0" parent="t6atKej5fnVRMdNGpLLc-158">
          <mxGeometry x="-0.2493" y="-1" relative="1" as="geometry">
            <mxPoint y="-9" as="offset" />
          </mxGeometry>
        </mxCell>
        <mxCell id="t6atKej5fnVRMdNGpLLc-159" style="edgeStyle=orthogonalEdgeStyle;rounded=0;orthogonalLoop=1;jettySize=auto;html=1;exitX=0.013;exitY=0.923;exitDx=0;exitDy=0;entryX=0.095;entryY=1.002;entryDx=0;entryDy=0;entryPerimeter=0;exitPerimeter=0;strokeColor=default;align=center;verticalAlign=middle;fontFamily=Helvetica;fontSize=11;fontColor=default;labelBackgroundColor=default;endArrow=open;endFill=0;" edge="1" parent="1" source="t6atKej5fnVRMdNGpLLc-143" target="t6atKej5fnVRMdNGpLLc-131">
          <mxGeometry relative="1" as="geometry" />
        </mxCell>
        <mxCell id="t6atKej5fnVRMdNGpLLc-175" value="checkSoC [B1.SoC = B1.MaxCharge and B2.SoC = B2.SoC.MaxCharge]" style="edgeLabel;html=1;align=center;verticalAlign=middle;resizable=0;points=[];labelBackgroundColor=none;" vertex="1" connectable="0" parent="t6atKej5fnVRMdNGpLLc-159">
          <mxGeometry x="-0.3023" relative="1" as="geometry">
            <mxPoint x="6" y="-9" as="offset" />
          </mxGeometry>
        </mxCell>
        <mxCell id="t6atKej5fnVRMdNGpLLc-160" style="edgeStyle=orthogonalEdgeStyle;rounded=0;orthogonalLoop=1;jettySize=auto;html=1;entryX=0.297;entryY=1.004;entryDx=0;entryDy=0;entryPerimeter=0;strokeColor=default;align=center;verticalAlign=middle;fontFamily=Helvetica;fontSize=11;fontColor=default;labelBackgroundColor=default;endArrow=none;endFill=0;startArrow=open;startFill=0;" edge="1" parent="1" source="t6atKej5fnVRMdNGpLLc-144" target="t6atKej5fnVRMdNGpLLc-131">
          <mxGeometry relative="1" as="geometry" />
        </mxCell>
        <mxCell id="t6atKej5fnVRMdNGpLLc-173" value="startCharging [B1.SoC &amp;lt; B1.MaxCharge]" style="edgeLabel;html=1;align=center;verticalAlign=middle;resizable=0;points=[];labelBackgroundColor=none;" vertex="1" connectable="0" parent="t6atKej5fnVRMdNGpLLc-160">
          <mxGeometry x="-0.255" y="1" relative="1" as="geometry">
            <mxPoint y="-9" as="offset" />
          </mxGeometry>
        </mxCell>
        <mxCell id="t6atKej5fnVRMdNGpLLc-161" style="edgeStyle=orthogonalEdgeStyle;rounded=0;orthogonalLoop=1;jettySize=auto;html=1;entryX=0.192;entryY=0.994;entryDx=0;entryDy=0;entryPerimeter=0;endArrow=none;endFill=0;startArrow=open;startFill=0;" edge="1" parent="1" source="t6atKej5fnVRMdNGpLLc-145" target="t6atKej5fnVRMdNGpLLc-131">
          <mxGeometry relative="1" as="geometry" />
        </mxCell>
        <mxCell id="t6atKej5fnVRMdNGpLLc-174" value="startCharging [B1.SoC = B1.MaxCharge and B2.SoC &amp;lt; B2.SoC.MaxCharge]" style="edgeLabel;html=1;align=center;verticalAlign=middle;resizable=0;points=[];labelBackgroundColor=none;" vertex="1" connectable="0" parent="t6atKej5fnVRMdNGpLLc-161">
          <mxGeometry x="-0.0212" relative="1" as="geometry">
            <mxPoint x="31" y="-9" as="offset" />
          </mxGeometry>
        </mxCell>
        <mxCell id="t6atKej5fnVRMdNGpLLc-163" style="edgeStyle=orthogonalEdgeStyle;rounded=0;orthogonalLoop=1;jettySize=auto;html=1;entryX=0.5;entryY=0;entryDx=0;entryDy=0;strokeColor=default;align=center;verticalAlign=middle;fontFamily=Helvetica;fontSize=11;fontColor=default;labelBackgroundColor=default;endArrow=open;endFill=0;" edge="1" parent="1" source="t6atKej5fnVRMdNGpLLc-138" target="t6atKej5fnVRMdNGpLLc-145">
          <mxGeometry relative="1" as="geometry" />
        </mxCell>
        <mxCell id="t6atKej5fnVRMdNGpLLc-178" value="&lt;span style=&quot;&quot;&gt;startCharging [B1.SoC = B1.MaxCharge&amp;nbsp;&lt;/span&gt;&lt;div&gt;&lt;span style=&quot;&quot;&gt;and B2.SoC &amp;lt; B2.SoC.MaxCharge]&lt;/span&gt;&lt;/div&gt;" style="edgeLabel;html=1;align=left;verticalAlign=middle;resizable=0;points=[];rotation=270;labelBackgroundColor=none;" vertex="1" connectable="0" parent="t6atKej5fnVRMdNGpLLc-163">
          <mxGeometry x="-0.0181" y="-1" relative="1" as="geometry">
            <mxPoint x="-16" y="108" as="offset" />
          </mxGeometry>
        </mxCell>
        <mxCell id="t6atKej5fnVRMdNGpLLc-164" style="edgeStyle=orthogonalEdgeStyle;rounded=0;orthogonalLoop=1;jettySize=auto;html=1;exitX=0.894;exitY=1.014;exitDx=0;exitDy=0;entryX=0.867;entryY=-0.002;entryDx=0;entryDy=0;entryPerimeter=0;endArrow=none;endFill=0;startArrow=open;startFill=0;exitPerimeter=0;" edge="1" parent="1" source="t6atKej5fnVRMdNGpLLc-138" target="t6atKej5fnVRMdNGpLLc-143">
          <mxGeometry relative="1" as="geometry" />
        </mxCell>
        <mxCell id="t6atKej5fnVRMdNGpLLc-179" value="startSupplying [&lt;span style=&quot;&quot;&gt;B1.SoC = 0 and B2.SoC &amp;gt; 0&lt;/span&gt;]" style="edgeLabel;html=1;align=center;verticalAlign=middle;resizable=0;points=[];rotation=270;labelBackgroundColor=none;" vertex="1" connectable="0" parent="t6atKej5fnVRMdNGpLLc-164">
          <mxGeometry x="0.3378" y="-1" relative="1" as="geometry">
            <mxPoint x="-10" y="-17" as="offset" />
          </mxGeometry>
        </mxCell>
        <mxCell id="t6atKej5fnVRMdNGpLLc-165" style="edgeStyle=orthogonalEdgeStyle;rounded=0;orthogonalLoop=1;jettySize=auto;html=1;exitX=0.75;exitY=1;exitDx=0;exitDy=0;entryX=0.378;entryY=0.005;entryDx=0;entryDy=0;entryPerimeter=0;endArrow=none;endFill=0;startArrow=open;startFill=0;" edge="1" parent="1" source="t6atKej5fnVRMdNGpLLc-137" target="t6atKej5fnVRMdNGpLLc-143">
          <mxGeometry relative="1" as="geometry" />
        </mxCell>
        <mxCell id="t6atKej5fnVRMdNGpLLc-177" value="startSupplying [B1.SoC &amp;gt; B0]" style="edgeLabel;html=1;align=center;verticalAlign=middle;resizable=0;points=[];rotation=270;labelBackgroundColor=none;" vertex="1" connectable="0" parent="t6atKej5fnVRMdNGpLLc-165">
          <mxGeometry x="0.3287" y="-1" relative="1" as="geometry">
            <mxPoint x="-10" y="8" as="offset" />
          </mxGeometry>
        </mxCell>
        <mxCell id="t6atKej5fnVRMdNGpLLc-166" style="edgeStyle=orthogonalEdgeStyle;rounded=0;orthogonalLoop=1;jettySize=auto;html=1;exitX=0.25;exitY=0;exitDx=0;exitDy=0;entryX=0.184;entryY=1;entryDx=0;entryDy=0;entryPerimeter=0;endArrow=none;endFill=0;startArrow=open;startFill=0;" edge="1" parent="1" source="t6atKej5fnVRMdNGpLLc-144" target="t6atKej5fnVRMdNGpLLc-123">
          <mxGeometry relative="1" as="geometry" />
        </mxCell>
        <mxCell id="t6atKej5fnVRMdNGpLLc-176" value="startCharging [B1.SoC &amp;lt; B1.MaxCharge]" style="edgeLabel;html=1;align=center;verticalAlign=middle;resizable=0;points=[];rotation=270;labelBackgroundColor=none;" vertex="1" connectable="0" parent="t6atKej5fnVRMdNGpLLc-166">
          <mxGeometry x="0.1627" relative="1" as="geometry">
            <mxPoint x="-10" y="12" as="offset" />
          </mxGeometry>
        </mxCell>
        <mxCell id="t6atKej5fnVRMdNGpLLc-180" value="" style="rounded=1;whiteSpace=wrap;html=1;strokeColor=#475E75;fillColor=#F5F6F7;arcSize=24;absoluteArcSize=1;imageWidth=64;imageHeight=64;strokeWidth=1.5;" vertex="1" parent="1">
          <mxGeometry x="40" y="3560" width="740" height="1060" as="geometry" />
        </mxCell>
        <mxCell id="t6atKej5fnVRMdNGpLLc-181" value="&lt;b&gt;Functional Model&lt;/b&gt;" style="rounded=1;whiteSpace=wrap;html=1;strokeWidth=1.5;arcSize=16;perimeterSpacing=0;absoluteArcSize=1;" vertex="1" parent="1">
          <mxGeometry x="50" y="3570" width="130" height="30" as="geometry" />
        </mxCell>
        <mxCell id="t6atKej5fnVRMdNGpLLc-182" value="&lt;font size=&quot;1&quot; color=&quot;#475f75&quot;&gt;&lt;b style=&quot;&quot;&gt;Operation Specification&lt;/b&gt;&lt;/font&gt;" style="rounded=1;whiteSpace=wrap;html=1;arcSize=50;strokeColor=#475f75;fillColor=default;strokeWidth=1.5;" vertex="1" parent="1">
          <mxGeometry x="193" y="3577" width="127" height="16" as="geometry" />
        </mxCell>
        <mxCell id="t6atKej5fnVRMdNGpLLc-183" value="" style="shape=table;startSize=0;container=1;collapsible=0;childLayout=tableLayout;fontSize=16;rounded=0;strokeColor=default;swimlaneFillColor=none;gradientColor=none;" vertex="1" parent="1">
          <mxGeometry x="70" y="3710" width="680" height="310" as="geometry" />
        </mxCell>
        <mxCell id="t6atKej5fnVRMdNGpLLc-184" value="" style="shape=tableRow;horizontal=0;startSize=0;swimlaneHead=0;swimlaneBody=0;strokeColor=inherit;top=0;left=0;bottom=0;right=0;collapsible=0;dropTarget=0;fillColor=none;points=[[0,0.5],[1,0.5]];portConstraint=eastwest;fontSize=16;" vertex="1" parent="t6atKej5fnVRMdNGpLLc-183">
          <mxGeometry width="680" height="40" as="geometry" />
        </mxCell>
        <mxCell id="t6atKej5fnVRMdNGpLLc-185" value="&lt;b&gt;Name&lt;/b&gt;" style="shape=partialRectangle;html=1;whiteSpace=wrap;connectable=0;strokeColor=#DFDFDF;overflow=hidden;fillColor=#F7F7F7;top=1;left=1;bottom=1;right=1;pointerEvents=1;fontSize=12;align=left;verticalAlign=middle;spacingLeft=10;spacingRight=10;fontFamily=Helvetica;fontColor=#333333;gradientColor=none;" vertex="1" parent="t6atKej5fnVRMdNGpLLc-184">
          <mxGeometry width="90" height="40" as="geometry">
            <mxRectangle width="90" height="40" as="alternateBounds" />
          </mxGeometry>
        </mxCell>
        <mxCell id="t6atKej5fnVRMdNGpLLc-186" value="&lt;b&gt;startSupplying&lt;/b&gt;" style="shape=partialRectangle;html=1;whiteSpace=wrap;connectable=0;strokeColor=#DFDFDF;overflow=hidden;fillColor=#F7F7F7;top=1;left=1;bottom=1;right=1;pointerEvents=1;fontSize=12;align=left;verticalAlign=middle;spacingLeft=10;spacingRight=10;fontFamily=Helvetica;fontColor=#333333;gradientColor=none;" vertex="1" parent="t6atKej5fnVRMdNGpLLc-184">
          <mxGeometry x="90" width="590" height="40" as="geometry">
            <mxRectangle width="590" height="40" as="alternateBounds" />
          </mxGeometry>
        </mxCell>
        <mxCell id="t6atKej5fnVRMdNGpLLc-187" value="" style="shape=tableRow;horizontal=0;startSize=0;swimlaneHead=0;swimlaneBody=0;strokeColor=inherit;top=0;left=0;bottom=0;right=0;collapsible=0;dropTarget=0;fillColor=none;points=[[0,0.5],[1,0.5]];portConstraint=eastwest;fontSize=16;" vertex="1" parent="t6atKej5fnVRMdNGpLLc-183">
          <mxGeometry y="40" width="680" height="60" as="geometry" />
        </mxCell>
        <mxCell id="t6atKej5fnVRMdNGpLLc-188" value="Description" style="shape=partialRectangle;html=1;whiteSpace=wrap;connectable=0;strokeColor=#DFDFDF;overflow=hidden;fillColor=#F7F7F7;top=1;left=1;bottom=1;right=1;pointerEvents=1;fontSize=12;align=left;verticalAlign=middle;spacingLeft=10;spacingRight=10;fontFamily=Helvetica;fontColor=#333333;gradientColor=none;" vertex="1" parent="t6atKej5fnVRMdNGpLLc-187">
          <mxGeometry width="90" height="60" as="geometry">
            <mxRectangle width="90" height="60" as="alternateBounds" />
          </mxGeometry>
        </mxCell>
        <mxCell id="t6atKej5fnVRMdNGpLLc-189" value="As an exterior event, if the Module is in the Idle and the SoC is zero, it stays in this state. If the Module is in the Idle and the SoC is greater than zero, it moves the Module to the Supplying state. If the Module is in the Charging state, it moves the Module to the Supplying state." style="shape=partialRectangle;html=1;whiteSpace=wrap;connectable=0;strokeColor=#DFDFDF;overflow=hidden;fillColor=#FFFFFF;top=1;left=1;bottom=1;right=1;pointerEvents=1;fontSize=12;align=left;verticalAlign=middle;spacingLeft=10;spacingRight=10;fontFamily=Helvetica;fontColor=#333333;gradientColor=none;" vertex="1" parent="t6atKej5fnVRMdNGpLLc-187">
          <mxGeometry x="90" width="590" height="60" as="geometry">
            <mxRectangle width="590" height="60" as="alternateBounds" />
          </mxGeometry>
        </mxCell>
        <mxCell id="t6atKej5fnVRMdNGpLLc-190" value="" style="shape=tableRow;horizontal=0;startSize=0;swimlaneHead=0;swimlaneBody=0;strokeColor=inherit;top=0;left=0;bottom=0;right=0;collapsible=0;dropTarget=0;fillColor=none;points=[[0,0.5],[1,0.5]];portConstraint=eastwest;fontSize=16;" vertex="1" parent="t6atKej5fnVRMdNGpLLc-183">
          <mxGeometry y="100" width="680" height="40" as="geometry" />
        </mxCell>
        <mxCell id="t6atKej5fnVRMdNGpLLc-191" value="Reads" style="shape=partialRectangle;html=1;whiteSpace=wrap;connectable=0;strokeColor=#DFDFDF;overflow=hidden;fillColor=#F7F7F7;top=1;left=1;bottom=1;right=1;pointerEvents=1;fontSize=12;align=left;verticalAlign=middle;spacingLeft=10;spacingRight=10;fontFamily=Helvetica;fontColor=#333333;gradientColor=none;" vertex="1" parent="t6atKej5fnVRMdNGpLLc-190">
          <mxGeometry width="90" height="40" as="geometry">
            <mxRectangle width="90" height="40" as="alternateBounds" />
          </mxGeometry>
        </mxCell>
        <mxCell id="t6atKej5fnVRMdNGpLLc-192" value="SoC&amp;nbsp;" style="shape=partialRectangle;html=1;whiteSpace=wrap;connectable=0;strokeColor=#DFDFDF;overflow=hidden;fillColor=#FFFFFF;top=1;left=1;bottom=1;right=1;pointerEvents=1;fontSize=12;align=left;verticalAlign=middle;spacingLeft=10;spacingRight=10;fontFamily=Helvetica;fontColor=#333333;gradientColor=none;" vertex="1" parent="t6atKej5fnVRMdNGpLLc-190">
          <mxGeometry x="90" width="590" height="40" as="geometry">
            <mxRectangle width="590" height="40" as="alternateBounds" />
          </mxGeometry>
        </mxCell>
        <mxCell id="t6atKej5fnVRMdNGpLLc-193" style="shape=tableRow;horizontal=0;startSize=0;swimlaneHead=0;swimlaneBody=0;strokeColor=inherit;top=0;left=0;bottom=0;right=0;collapsible=0;dropTarget=0;fillColor=none;points=[[0,0.5],[1,0.5]];portConstraint=eastwest;fontSize=16;" vertex="1" parent="t6atKej5fnVRMdNGpLLc-183">
          <mxGeometry y="140" width="680" height="40" as="geometry" />
        </mxCell>
        <mxCell id="t6atKej5fnVRMdNGpLLc-194" value="Changes" style="shape=partialRectangle;html=1;whiteSpace=wrap;connectable=0;strokeColor=#DFDFDF;overflow=hidden;fillColor=#F7F7F7;top=1;left=1;bottom=1;right=1;pointerEvents=1;fontSize=12;align=left;verticalAlign=middle;spacingLeft=10;spacingRight=10;fontFamily=Helvetica;fontColor=#333333;gradientColor=none;" vertex="1" parent="t6atKej5fnVRMdNGpLLc-193">
          <mxGeometry width="90" height="40" as="geometry">
            <mxRectangle width="90" height="40" as="alternateBounds" />
          </mxGeometry>
        </mxCell>
        <mxCell id="t6atKej5fnVRMdNGpLLc-195" value="Module" style="shape=partialRectangle;html=1;whiteSpace=wrap;connectable=0;strokeColor=#DFDFDF;overflow=hidden;fillColor=#FFFFFF;top=1;left=1;bottom=1;right=1;pointerEvents=1;fontSize=12;align=left;verticalAlign=middle;spacingLeft=10;spacingRight=10;fontFamily=Helvetica;fontColor=#333333;gradientColor=none;" vertex="1" parent="t6atKej5fnVRMdNGpLLc-193">
          <mxGeometry x="90" width="590" height="40" as="geometry">
            <mxRectangle width="590" height="40" as="alternateBounds" />
          </mxGeometry>
        </mxCell>
        <mxCell id="t6atKej5fnVRMdNGpLLc-196" style="shape=tableRow;horizontal=0;startSize=0;swimlaneHead=0;swimlaneBody=0;strokeColor=inherit;top=0;left=0;bottom=0;right=0;collapsible=0;dropTarget=0;fillColor=none;points=[[0,0.5],[1,0.5]];portConstraint=eastwest;fontSize=16;" vertex="1" parent="t6atKej5fnVRMdNGpLLc-183">
          <mxGeometry y="180" width="680" height="40" as="geometry" />
        </mxCell>
        <mxCell id="t6atKej5fnVRMdNGpLLc-197" value="Assumes" style="shape=partialRectangle;html=1;whiteSpace=wrap;connectable=0;strokeColor=#DFDFDF;overflow=hidden;fillColor=#F7F7F7;top=1;left=1;bottom=1;right=1;pointerEvents=1;fontSize=12;align=left;verticalAlign=middle;spacingLeft=10;spacingRight=10;fontFamily=Helvetica;fontColor=#333333;gradientColor=none;" vertex="1" parent="t6atKej5fnVRMdNGpLLc-196">
          <mxGeometry width="90" height="40" as="geometry">
            <mxRectangle width="90" height="40" as="alternateBounds" />
          </mxGeometry>
        </mxCell>
        <mxCell id="t6atKej5fnVRMdNGpLLc-198" value="The Module is in the Idle or Charging state" style="shape=partialRectangle;html=1;whiteSpace=wrap;connectable=0;strokeColor=#DFDFDF;overflow=hidden;fillColor=#FFFFFF;top=1;left=1;bottom=1;right=1;pointerEvents=1;fontSize=12;align=left;verticalAlign=middle;spacingLeft=10;spacingRight=10;fontFamily=Helvetica;fontColor=#333333;gradientColor=none;" vertex="1" parent="t6atKej5fnVRMdNGpLLc-196">
          <mxGeometry x="90" width="590" height="40" as="geometry">
            <mxRectangle width="590" height="40" as="alternateBounds" />
          </mxGeometry>
        </mxCell>
        <mxCell id="t6atKej5fnVRMdNGpLLc-199" style="shape=tableRow;horizontal=0;startSize=0;swimlaneHead=0;swimlaneBody=0;strokeColor=inherit;top=0;left=0;bottom=0;right=0;collapsible=0;dropTarget=0;fillColor=none;points=[[0,0.5],[1,0.5]];portConstraint=eastwest;fontSize=16;" vertex="1" parent="t6atKej5fnVRMdNGpLLc-183">
          <mxGeometry y="220" width="680" height="90" as="geometry" />
        </mxCell>
        <mxCell id="t6atKej5fnVRMdNGpLLc-200" value="Result" style="shape=partialRectangle;html=1;whiteSpace=wrap;connectable=0;strokeColor=#DFDFDF;overflow=hidden;fillColor=#F7F7F7;top=1;left=1;bottom=1;right=1;pointerEvents=1;fontSize=12;align=left;verticalAlign=middle;spacingLeft=10;spacingRight=10;fontFamily=Helvetica;fontColor=#333333;gradientColor=none;" vertex="1" parent="t6atKej5fnVRMdNGpLLc-199">
          <mxGeometry width="90" height="90" as="geometry">
            <mxRectangle width="90" height="90" as="alternateBounds" />
          </mxGeometry>
        </mxCell>
        <mxCell id="t6atKej5fnVRMdNGpLLc-201" value="if Module&amp;nbsp;is in the Idle and SoC = 0&lt;div&gt;&lt;span style=&quot;white-space: pre;&quot;&gt;&#x9;&lt;/span&gt;Module is in the Idle state&lt;/div&gt;&lt;div&gt;if Module&amp;nbsp;is in the Idle &lt;span style=&quot;background-color: transparent; color: light-dark(rgb(51, 51, 51), rgb(193, 193, 193));&quot;&gt;and SoC &amp;gt; 0&lt;/span&gt;&lt;/div&gt;&lt;div&gt;&lt;div&gt;&lt;span style=&quot;white-space: pre;&quot;&gt;&#x9;&lt;/span&gt;Module is in the Supplying state&lt;/div&gt;&lt;/div&gt;&lt;div&gt;&lt;div&gt;if Module&amp;nbsp;is in the Charging&lt;/div&gt;&lt;div&gt;&lt;span style=&quot;white-space: pre;&quot;&gt;&#x9;&lt;/span&gt;Module is in the Supplying state&lt;/div&gt;&lt;/div&gt;" style="shape=partialRectangle;html=1;whiteSpace=wrap;connectable=0;strokeColor=#DFDFDF;overflow=hidden;fillColor=#FFFFFF;top=1;left=1;bottom=1;right=1;pointerEvents=1;fontSize=12;align=left;verticalAlign=middle;spacingLeft=10;spacingRight=10;fontFamily=Helvetica;fontColor=#333333;gradientColor=none;" vertex="1" parent="t6atKej5fnVRMdNGpLLc-199">
          <mxGeometry x="90" width="590" height="90" as="geometry">
            <mxRectangle width="590" height="90" as="alternateBounds" />
          </mxGeometry>
        </mxCell>
        <mxCell id="t6atKej5fnVRMdNGpLLc-202" value="" style="group;glass=0;shadow=0;" vertex="1" connectable="0" parent="1">
          <mxGeometry x="640" y="3580" width="130" height="90" as="geometry" />
        </mxCell>
        <mxCell id="t6atKej5fnVRMdNGpLLc-203" value="" style="shape=parallelogram;html=1;strokeWidth=1;perimeter=parallelogramPerimeter;whiteSpace=wrap;rounded=1;arcSize=12;size=0.23;shadow=0;" vertex="1" parent="t6atKej5fnVRMdNGpLLc-202">
          <mxGeometry x="92.85714285714286" y="24" width="37.142857142857146" height="12" as="geometry" />
        </mxCell>
        <mxCell id="t6atKej5fnVRMdNGpLLc-204" value="" style="shape=parallelogram;html=1;strokeWidth=1;perimeter=parallelogramPerimeter;whiteSpace=wrap;rounded=1;arcSize=12;size=0.23;shadow=0;" vertex="1" parent="t6atKej5fnVRMdNGpLLc-202">
          <mxGeometry x="49.523809523809526" width="37.142857142857146" height="12" as="geometry" />
        </mxCell>
        <mxCell id="t6atKej5fnVRMdNGpLLc-205" value="" style="shape=parallelogram;html=1;strokeWidth=1;perimeter=parallelogramPerimeter;whiteSpace=wrap;rounded=1;arcSize=12;size=0.23;shadow=0;fillColor=#000000;" vertex="1" parent="t6atKej5fnVRMdNGpLLc-202">
          <mxGeometry y="24" width="37.142857142857146" height="12" as="geometry" />
        </mxCell>
        <mxCell id="t6atKej5fnVRMdNGpLLc-206" value="" style="edgeStyle=isometricEdgeStyle;endArrow=none;html=1;elbow=vertical;rounded=0;entryX=1;entryY=0.5;entryDx=0;entryDy=0;exitX=1;exitY=0.5;exitDx=0;exitDy=0;" edge="1" parent="t6atKej5fnVRMdNGpLLc-202" source="t6atKej5fnVRMdNGpLLc-204" target="t6atKej5fnVRMdNGpLLc-204">
          <mxGeometry width="50" height="100" relative="1" as="geometry">
            <mxPoint x="89.76190476190476" y="72" as="sourcePoint" />
            <mxPoint x="120.71428571428572" y="12" as="targetPoint" />
            <Array as="points" />
          </mxGeometry>
        </mxCell>
        <mxCell id="t6atKej5fnVRMdNGpLLc-207" value="" style="endArrow=open;html=1;rounded=0;endSize=2;entryX=1;entryY=0.5;entryDx=0;entryDy=0;exitX=0.598;exitY=-0.024;exitDx=0;exitDy=0;exitPerimeter=0;startArrow=open;startFill=0;endFill=0;startSize=2;" edge="1" parent="t6atKej5fnVRMdNGpLLc-202" source="t6atKej5fnVRMdNGpLLc-203" target="t6atKej5fnVRMdNGpLLc-204">
          <mxGeometry width="50" height="50" relative="1" as="geometry">
            <mxPoint x="117.61904761904762" y="30" as="sourcePoint" />
            <mxPoint x="94.77619047619042" y="12" as="targetPoint" />
            <Array as="points">
              <mxPoint x="123.80952380952381" y="6" />
            </Array>
          </mxGeometry>
        </mxCell>
        <mxCell id="t6atKej5fnVRMdNGpLLc-208" value="" style="endArrow=open;html=1;rounded=0;endSize=2;entryX=0;entryY=0.5;entryDx=0;entryDy=0;exitX=0.5;exitY=0;exitDx=0;exitDy=0;strokeColor=default;align=center;verticalAlign=middle;fontFamily=Helvetica;fontSize=11;fontColor=default;labelBackgroundColor=default;startArrow=open;startFill=0;startSize=2;endFill=0;" edge="1" parent="t6atKej5fnVRMdNGpLLc-202" source="t6atKej5fnVRMdNGpLLc-205" target="t6atKej5fnVRMdNGpLLc-204">
          <mxGeometry width="50" height="50" relative="1" as="geometry">
            <mxPoint x="59.42857142857143" y="24" as="sourcePoint" />
            <mxPoint x="51.38095238095238" y="12" as="targetPoint" />
            <Array as="points">
              <mxPoint x="30.952380952380953" y="6" />
            </Array>
          </mxGeometry>
        </mxCell>
        <mxCell id="t6atKej5fnVRMdNGpLLc-209" value="" style="shape=cube;whiteSpace=wrap;html=1;boundedLbl=1;backgroundOutline=1;darkOpacity=0.05;darkOpacity2=0.1;size=10;shadow=1;" vertex="1" parent="t6atKej5fnVRMdNGpLLc-202">
          <mxGeometry x="52.61904761904762" y="25.2" width="24.761904761904763" height="36" as="geometry" />
        </mxCell>
        <mxCell id="t6atKej5fnVRMdNGpLLc-210" value="" style="endArrow=block;html=1;rounded=0;exitX=0.475;exitY=0.969;exitDx=0;exitDy=0;exitPerimeter=0;entryX=0.332;entryY=-0.012;entryDx=0;entryDy=0;entryPerimeter=0;endSize=2;strokeColor=default;align=center;verticalAlign=middle;fontFamily=Helvetica;fontSize=11;fontColor=default;labelBackgroundColor=default;endFill=1;" edge="1" parent="t6atKej5fnVRMdNGpLLc-202" source="t6atKej5fnVRMdNGpLLc-204" target="t6atKej5fnVRMdNGpLLc-209">
          <mxGeometry width="50" height="50" relative="1" as="geometry">
            <mxPoint x="74.28571428571429" y="78" as="sourcePoint" />
            <mxPoint x="105.23809523809524" y="48" as="targetPoint" />
          </mxGeometry>
        </mxCell>
        <mxCell id="t6atKej5fnVRMdNGpLLc-211" value="" style="endArrow=block;html=1;rounded=0;exitX=0;exitY=0.25;exitDx=0;exitDy=0;entryX=0.753;entryY=0.083;entryDx=0;entryDy=0;entryPerimeter=0;endSize=2;strokeColor=default;align=center;verticalAlign=middle;fontFamily=Helvetica;fontSize=11;fontColor=default;labelBackgroundColor=default;endFill=1;" edge="1" parent="t6atKej5fnVRMdNGpLLc-202" source="t6atKej5fnVRMdNGpLLc-203" target="t6atKej5fnVRMdNGpLLc-209">
          <mxGeometry width="50" height="50" relative="1" as="geometry">
            <mxPoint x="71.19047619047619" y="18" as="sourcePoint" />
            <mxPoint x="71.19047619047619" y="30" as="targetPoint" />
          </mxGeometry>
        </mxCell>
        <mxCell id="t6atKej5fnVRMdNGpLLc-212" value="" style="endArrow=block;html=1;rounded=0;exitX=0.93;exitY=0.361;exitDx=0;exitDy=0;entryX=-0.052;entryY=0.085;entryDx=0;entryDy=0;entryPerimeter=0;endSize=2;exitPerimeter=0;endFill=1;" edge="1" parent="t6atKej5fnVRMdNGpLLc-202" source="t6atKej5fnVRMdNGpLLc-205" target="t6atKej5fnVRMdNGpLLc-209">
          <mxGeometry width="50" height="50" relative="1" as="geometry">
            <mxPoint x="104.61904761904762" y="34.199999999999996" as="sourcePoint" />
            <mxPoint x="83.57142857142857" y="34.199999999999996" as="targetPoint" />
          </mxGeometry>
        </mxCell>
        <mxCell id="t6atKej5fnVRMdNGpLLc-213" value="" style="shape=parallelogram;html=1;strokeWidth=1;perimeter=parallelogramPerimeter;whiteSpace=wrap;rounded=1;arcSize=12;size=0.23;shadow=1;" vertex="1" parent="t6atKej5fnVRMdNGpLLc-202">
          <mxGeometry x="86.66666666666667" y="54" width="37.142857142857146" height="12" as="geometry" />
        </mxCell>
        <mxCell id="t6atKej5fnVRMdNGpLLc-214" value="" style="shape=parallelogram;html=1;strokeWidth=1;perimeter=parallelogramPerimeter;whiteSpace=wrap;rounded=1;arcSize=12;size=0.23;shadow=1;" vertex="1" parent="t6atKej5fnVRMdNGpLLc-202">
          <mxGeometry x="24.761904761904763" y="78" width="37.142857142857146" height="12" as="geometry" />
        </mxCell>
        <mxCell id="t6atKej5fnVRMdNGpLLc-215" value="" style="shape=parallelogram;html=1;strokeWidth=1;perimeter=parallelogramPerimeter;whiteSpace=wrap;rounded=1;arcSize=12;size=0.23;shadow=1;" vertex="1" parent="t6atKej5fnVRMdNGpLLc-202">
          <mxGeometry y="54" width="37.142857142857146" height="12" as="geometry" />
        </mxCell>
        <mxCell id="t6atKej5fnVRMdNGpLLc-216" value="" style="edgeStyle=isometricEdgeStyle;endArrow=none;html=1;elbow=vertical;rounded=0;entryX=1;entryY=0.5;entryDx=0;entryDy=0;exitX=1;exitY=0.5;exitDx=0;exitDy=0;" edge="1" parent="t6atKej5fnVRMdNGpLLc-202" source="t6atKej5fnVRMdNGpLLc-214" target="t6atKej5fnVRMdNGpLLc-214">
          <mxGeometry width="50" height="100" relative="1" as="geometry">
            <mxPoint x="83.57142857142857" y="102" as="sourcePoint" />
            <mxPoint x="114.52380952380953" y="42" as="targetPoint" />
            <Array as="points" />
          </mxGeometry>
        </mxCell>
        <mxCell id="t6atKej5fnVRMdNGpLLc-217" value="" style="endArrow=open;html=1;rounded=0;endSize=2;entryX=1;entryY=0.5;entryDx=0;entryDy=0;exitX=0.421;exitY=1.024;exitDx=0;exitDy=0;exitPerimeter=0;strokeColor=default;align=center;verticalAlign=middle;fontFamily=Helvetica;fontSize=11;fontColor=default;labelBackgroundColor=default;startArrow=open;startFill=0;startSize=2;endFill=0;" edge="1" parent="t6atKej5fnVRMdNGpLLc-202" source="t6atKej5fnVRMdNGpLLc-213" target="t6atKej5fnVRMdNGpLLc-214">
          <mxGeometry width="50" height="50" relative="1" as="geometry">
            <mxPoint x="111.42857142857143" y="60" as="sourcePoint" />
            <mxPoint x="88.58571428571423" y="42" as="targetPoint" />
            <Array as="points">
              <mxPoint x="92.85714285714286" y="84" />
            </Array>
          </mxGeometry>
        </mxCell>
        <mxCell id="t6atKej5fnVRMdNGpLLc-218" value="" style="endArrow=open;html=1;rounded=0;endSize=2;entryX=0;entryY=0.5;entryDx=0;entryDy=0;exitX=0.405;exitY=1.002;exitDx=0;exitDy=0;exitPerimeter=0;strokeColor=default;align=center;verticalAlign=middle;fontFamily=Helvetica;fontSize=11;fontColor=default;labelBackgroundColor=default;startArrow=open;startFill=0;startSize=2;endFill=0;" edge="1" parent="t6atKej5fnVRMdNGpLLc-202" source="t6atKej5fnVRMdNGpLLc-215" target="t6atKej5fnVRMdNGpLLc-214">
          <mxGeometry width="50" height="50" relative="1" as="geometry">
            <mxPoint x="53.23809523809524" y="54" as="sourcePoint" />
            <mxPoint x="45.19047619047619" y="42" as="targetPoint" />
            <Array as="points">
              <mxPoint y="84" />
            </Array>
          </mxGeometry>
        </mxCell>
        <mxCell id="t6atKej5fnVRMdNGpLLc-219" value="" style="endArrow=block;html=1;rounded=0;exitX=0.605;exitY=-0.013;exitDx=0;exitDy=0;exitPerimeter=0;entryX=0.326;entryY=1.008;entryDx=0;entryDy=0;entryPerimeter=0;endSize=2;strokeColor=default;align=center;verticalAlign=middle;fontFamily=Helvetica;fontSize=11;fontColor=default;labelBackgroundColor=default;endFill=1;" edge="1" parent="t6atKej5fnVRMdNGpLLc-202" source="t6atKej5fnVRMdNGpLLc-214" target="t6atKej5fnVRMdNGpLLc-209">
          <mxGeometry width="50" height="50" relative="1" as="geometry">
            <mxPoint x="68.0952380952381" y="108" as="sourcePoint" />
            <mxPoint x="58.80952380952381" y="55.199999999999996" as="targetPoint" />
          </mxGeometry>
        </mxCell>
        <mxCell id="t6atKej5fnVRMdNGpLLc-220" value="" style="endArrow=block;html=1;rounded=0;exitX=0;exitY=0.25;exitDx=0;exitDy=0;endSize=2;entryX=1.006;entryY=0.917;entryDx=0;entryDy=0;entryPerimeter=0;strokeColor=default;align=center;verticalAlign=middle;fontFamily=Helvetica;fontSize=11;fontColor=default;labelBackgroundColor=default;endFill=1;" edge="1" parent="t6atKej5fnVRMdNGpLLc-202" source="t6atKej5fnVRMdNGpLLc-213" target="t6atKej5fnVRMdNGpLLc-209">
          <mxGeometry width="50" height="50" relative="1" as="geometry">
            <mxPoint x="65" y="48" as="sourcePoint" />
            <mxPoint x="80.47619047619048" y="58.199999999999996" as="targetPoint" />
          </mxGeometry>
        </mxCell>
        <mxCell id="t6atKej5fnVRMdNGpLLc-221" value="" style="endArrow=block;html=1;rounded=0;exitX=0.93;exitY=0.361;exitDx=0;exitDy=0;entryX=0.047;entryY=0.917;entryDx=0;entryDy=0;entryPerimeter=0;endSize=2;exitPerimeter=0;strokeColor=default;align=center;verticalAlign=middle;fontFamily=Helvetica;fontSize=11;fontColor=default;labelBackgroundColor=default;endFill=1;" edge="1" parent="t6atKej5fnVRMdNGpLLc-202" source="t6atKej5fnVRMdNGpLLc-215" target="t6atKej5fnVRMdNGpLLc-209">
          <mxGeometry width="50" height="50" relative="1" as="geometry">
            <mxPoint x="98.42857142857143" y="64.2" as="sourcePoint" />
            <mxPoint x="48.285714285714285" y="58.199999999999996" as="targetPoint" />
          </mxGeometry>
        </mxCell>
        <mxCell id="t6atKej5fnVRMdNGpLLc-222" value="" style="endArrow=open;startArrow=open;html=1;rounded=0;entryX=0.5;entryY=1;entryDx=0;entryDy=0;exitX=0.5;exitY=0;exitDx=0;exitDy=0;endSize=2;startSize=2;startFill=0;endFill=0;" edge="1" parent="t6atKej5fnVRMdNGpLLc-202" source="t6atKej5fnVRMdNGpLLc-215" target="t6atKej5fnVRMdNGpLLc-205">
          <mxGeometry width="50" height="50" relative="1" as="geometry">
            <mxPoint x="12.380952380952381" y="60" as="sourcePoint" />
            <mxPoint x="43.333333333333336" y="30" as="targetPoint" />
          </mxGeometry>
        </mxCell>
        <mxCell id="t6atKej5fnVRMdNGpLLc-223" value="" style="endArrow=open;startArrow=open;html=1;rounded=0;entryX=0.409;entryY=0.996;entryDx=0;entryDy=0;exitX=0.572;exitY=0.009;exitDx=0;exitDy=0;endSize=2;startSize=2;startFill=0;endFill=0;entryPerimeter=0;exitPerimeter=0;" edge="1" parent="t6atKej5fnVRMdNGpLLc-202" source="t6atKej5fnVRMdNGpLLc-213" target="t6atKej5fnVRMdNGpLLc-203">
          <mxGeometry width="50" height="50" relative="1" as="geometry">
            <mxPoint x="111.31095238095239" y="54" as="sourcePoint" />
            <mxPoint x="111.31095238095239" y="36" as="targetPoint" />
          </mxGeometry>
        </mxCell>
        <mxCell id="t6atKej5fnVRMdNGpLLc-224" value="" style="shape=table;startSize=0;container=1;collapsible=0;childLayout=tableLayout;fontSize=16;rounded=0;strokeColor=default;swimlaneFillColor=none;gradientColor=none;" vertex="1" parent="1">
          <mxGeometry x="70" y="4044" width="680" height="306" as="geometry" />
        </mxCell>
        <mxCell id="t6atKej5fnVRMdNGpLLc-225" value="" style="shape=tableRow;horizontal=0;startSize=0;swimlaneHead=0;swimlaneBody=0;strokeColor=inherit;top=0;left=0;bottom=0;right=0;collapsible=0;dropTarget=0;fillColor=none;points=[[0,0.5],[1,0.5]];portConstraint=eastwest;fontSize=16;" vertex="1" parent="t6atKej5fnVRMdNGpLLc-224">
          <mxGeometry width="680" height="40" as="geometry" />
        </mxCell>
        <mxCell id="t6atKej5fnVRMdNGpLLc-226" value="&lt;b&gt;Name&lt;/b&gt;" style="shape=partialRectangle;html=1;whiteSpace=wrap;connectable=0;strokeColor=#DFDFDF;overflow=hidden;fillColor=#F7F7F7;top=1;left=1;bottom=1;right=1;pointerEvents=1;fontSize=12;align=left;verticalAlign=middle;spacingLeft=10;spacingRight=10;fontFamily=Helvetica;fontColor=#333333;gradientColor=none;" vertex="1" parent="t6atKej5fnVRMdNGpLLc-225">
          <mxGeometry width="90" height="40" as="geometry">
            <mxRectangle width="90" height="40" as="alternateBounds" />
          </mxGeometry>
        </mxCell>
        <mxCell id="t6atKej5fnVRMdNGpLLc-227" value="&lt;b&gt;Charging&lt;/b&gt;" style="shape=partialRectangle;html=1;whiteSpace=wrap;connectable=0;strokeColor=#DFDFDF;overflow=hidden;fillColor=#F7F7F7;top=1;left=1;bottom=1;right=1;pointerEvents=1;fontSize=12;align=left;verticalAlign=middle;spacingLeft=10;spacingRight=10;fontFamily=Helvetica;fontColor=#333333;gradientColor=none;" vertex="1" parent="t6atKej5fnVRMdNGpLLc-225">
          <mxGeometry x="90" width="590" height="40" as="geometry">
            <mxRectangle width="590" height="40" as="alternateBounds" />
          </mxGeometry>
        </mxCell>
        <mxCell id="t6atKej5fnVRMdNGpLLc-228" value="" style="shape=tableRow;horizontal=0;startSize=0;swimlaneHead=0;swimlaneBody=0;strokeColor=inherit;top=0;left=0;bottom=0;right=0;collapsible=0;dropTarget=0;fillColor=none;points=[[0,0.5],[1,0.5]];portConstraint=eastwest;fontSize=16;" vertex="1" parent="t6atKej5fnVRMdNGpLLc-224">
          <mxGeometry y="40" width="680" height="50" as="geometry" />
        </mxCell>
        <mxCell id="t6atKej5fnVRMdNGpLLc-229" value="Description" style="shape=partialRectangle;html=1;whiteSpace=wrap;connectable=0;strokeColor=#DFDFDF;overflow=hidden;fillColor=#F7F7F7;top=1;left=1;bottom=1;right=1;pointerEvents=1;fontSize=12;align=left;verticalAlign=middle;spacingLeft=10;spacingRight=10;fontFamily=Helvetica;fontColor=#333333;gradientColor=none;" vertex="1" parent="t6atKej5fnVRMdNGpLLc-228">
          <mxGeometry width="90" height="50" as="geometry">
            <mxRectangle width="90" height="50" as="alternateBounds" />
          </mxGeometry>
        </mxCell>
        <mxCell id="t6atKej5fnVRMdNGpLLc-230" value="As an exterior event, if the Module is in the Idle and the SoC equals MaxPower, it stays in this state. If the Module is in the Idle and the SoC is less than MaxPower, it moves the Module to the Charging state. If the Module is in the Supplying, it moves the Module to the Charging state." style="shape=partialRectangle;html=1;whiteSpace=wrap;connectable=0;strokeColor=#DFDFDF;overflow=hidden;fillColor=#FFFFFF;top=1;left=1;bottom=1;right=1;pointerEvents=1;fontSize=12;align=left;verticalAlign=middle;spacingLeft=10;spacingRight=10;fontFamily=Helvetica;fontColor=#333333;gradientColor=none;" vertex="1" parent="t6atKej5fnVRMdNGpLLc-228">
          <mxGeometry x="90" width="590" height="50" as="geometry">
            <mxRectangle width="590" height="50" as="alternateBounds" />
          </mxGeometry>
        </mxCell>
        <mxCell id="t6atKej5fnVRMdNGpLLc-231" value="" style="shape=tableRow;horizontal=0;startSize=0;swimlaneHead=0;swimlaneBody=0;strokeColor=inherit;top=0;left=0;bottom=0;right=0;collapsible=0;dropTarget=0;fillColor=none;points=[[0,0.5],[1,0.5]];portConstraint=eastwest;fontSize=16;" vertex="1" parent="t6atKej5fnVRMdNGpLLc-224">
          <mxGeometry y="90" width="680" height="40" as="geometry" />
        </mxCell>
        <mxCell id="t6atKej5fnVRMdNGpLLc-232" value="Reads" style="shape=partialRectangle;html=1;whiteSpace=wrap;connectable=0;strokeColor=#DFDFDF;overflow=hidden;fillColor=#F7F7F7;top=1;left=1;bottom=1;right=1;pointerEvents=1;fontSize=12;align=left;verticalAlign=middle;spacingLeft=10;spacingRight=10;fontFamily=Helvetica;fontColor=#333333;gradientColor=none;" vertex="1" parent="t6atKej5fnVRMdNGpLLc-231">
          <mxGeometry width="90" height="40" as="geometry">
            <mxRectangle width="90" height="40" as="alternateBounds" />
          </mxGeometry>
        </mxCell>
        <mxCell id="t6atKej5fnVRMdNGpLLc-233" value="SoC, MaxPower&amp;nbsp;" style="shape=partialRectangle;html=1;whiteSpace=wrap;connectable=0;strokeColor=#DFDFDF;overflow=hidden;fillColor=#FFFFFF;top=1;left=1;bottom=1;right=1;pointerEvents=1;fontSize=12;align=left;verticalAlign=middle;spacingLeft=10;spacingRight=10;fontFamily=Helvetica;fontColor=#333333;gradientColor=none;" vertex="1" parent="t6atKej5fnVRMdNGpLLc-231">
          <mxGeometry x="90" width="590" height="40" as="geometry">
            <mxRectangle width="590" height="40" as="alternateBounds" />
          </mxGeometry>
        </mxCell>
        <mxCell id="t6atKej5fnVRMdNGpLLc-234" style="shape=tableRow;horizontal=0;startSize=0;swimlaneHead=0;swimlaneBody=0;strokeColor=inherit;top=0;left=0;bottom=0;right=0;collapsible=0;dropTarget=0;fillColor=none;points=[[0,0.5],[1,0.5]];portConstraint=eastwest;fontSize=16;" vertex="1" parent="t6atKej5fnVRMdNGpLLc-224">
          <mxGeometry y="130" width="680" height="40" as="geometry" />
        </mxCell>
        <mxCell id="t6atKej5fnVRMdNGpLLc-235" value="Changes" style="shape=partialRectangle;html=1;whiteSpace=wrap;connectable=0;strokeColor=#DFDFDF;overflow=hidden;fillColor=#F7F7F7;top=1;left=1;bottom=1;right=1;pointerEvents=1;fontSize=12;align=left;verticalAlign=middle;spacingLeft=10;spacingRight=10;fontFamily=Helvetica;fontColor=#333333;gradientColor=none;" vertex="1" parent="t6atKej5fnVRMdNGpLLc-234">
          <mxGeometry width="90" height="40" as="geometry">
            <mxRectangle width="90" height="40" as="alternateBounds" />
          </mxGeometry>
        </mxCell>
        <mxCell id="t6atKej5fnVRMdNGpLLc-236" value="Module" style="shape=partialRectangle;html=1;whiteSpace=wrap;connectable=0;strokeColor=#DFDFDF;overflow=hidden;fillColor=#FFFFFF;top=1;left=1;bottom=1;right=1;pointerEvents=1;fontSize=12;align=left;verticalAlign=middle;spacingLeft=10;spacingRight=10;fontFamily=Helvetica;fontColor=#333333;gradientColor=none;" vertex="1" parent="t6atKej5fnVRMdNGpLLc-234">
          <mxGeometry x="90" width="590" height="40" as="geometry">
            <mxRectangle width="590" height="40" as="alternateBounds" />
          </mxGeometry>
        </mxCell>
        <mxCell id="t6atKej5fnVRMdNGpLLc-237" style="shape=tableRow;horizontal=0;startSize=0;swimlaneHead=0;swimlaneBody=0;strokeColor=inherit;top=0;left=0;bottom=0;right=0;collapsible=0;dropTarget=0;fillColor=none;points=[[0,0.5],[1,0.5]];portConstraint=eastwest;fontSize=16;" vertex="1" parent="t6atKej5fnVRMdNGpLLc-224">
          <mxGeometry y="170" width="680" height="40" as="geometry" />
        </mxCell>
        <mxCell id="t6atKej5fnVRMdNGpLLc-238" value="Assumes" style="shape=partialRectangle;html=1;whiteSpace=wrap;connectable=0;strokeColor=#DFDFDF;overflow=hidden;fillColor=#F7F7F7;top=1;left=1;bottom=1;right=1;pointerEvents=1;fontSize=12;align=left;verticalAlign=middle;spacingLeft=10;spacingRight=10;fontFamily=Helvetica;fontColor=#333333;gradientColor=none;" vertex="1" parent="t6atKej5fnVRMdNGpLLc-237">
          <mxGeometry width="90" height="40" as="geometry">
            <mxRectangle width="90" height="40" as="alternateBounds" />
          </mxGeometry>
        </mxCell>
        <mxCell id="t6atKej5fnVRMdNGpLLc-239" value="The Module is in the Idle or Supplying state" style="shape=partialRectangle;html=1;whiteSpace=wrap;connectable=0;strokeColor=#DFDFDF;overflow=hidden;fillColor=#FFFFFF;top=1;left=1;bottom=1;right=1;pointerEvents=1;fontSize=12;align=left;verticalAlign=middle;spacingLeft=10;spacingRight=10;fontFamily=Helvetica;fontColor=#333333;gradientColor=none;" vertex="1" parent="t6atKej5fnVRMdNGpLLc-237">
          <mxGeometry x="90" width="590" height="40" as="geometry">
            <mxRectangle width="590" height="40" as="alternateBounds" />
          </mxGeometry>
        </mxCell>
        <mxCell id="t6atKej5fnVRMdNGpLLc-240" style="shape=tableRow;horizontal=0;startSize=0;swimlaneHead=0;swimlaneBody=0;strokeColor=inherit;top=0;left=0;bottom=0;right=0;collapsible=0;dropTarget=0;fillColor=none;points=[[0,0.5],[1,0.5]];portConstraint=eastwest;fontSize=16;" vertex="1" parent="t6atKej5fnVRMdNGpLLc-224">
          <mxGeometry y="210" width="680" height="96" as="geometry" />
        </mxCell>
        <mxCell id="t6atKej5fnVRMdNGpLLc-241" value="Result" style="shape=partialRectangle;html=1;whiteSpace=wrap;connectable=0;strokeColor=#DFDFDF;overflow=hidden;fillColor=#F7F7F7;top=1;left=1;bottom=1;right=1;pointerEvents=1;fontSize=12;align=left;verticalAlign=middle;spacingLeft=10;spacingRight=10;fontFamily=Helvetica;fontColor=#333333;gradientColor=none;" vertex="1" parent="t6atKej5fnVRMdNGpLLc-240">
          <mxGeometry width="90" height="96" as="geometry">
            <mxRectangle width="90" height="96" as="alternateBounds" />
          </mxGeometry>
        </mxCell>
        <mxCell id="t6atKej5fnVRMdNGpLLc-242" value="&lt;div&gt;&lt;div&gt;if Module&amp;nbsp;is in the Idle and SoC = MaxPower&lt;div&gt;&lt;span style=&quot;white-space: pre;&quot;&gt;&#x9;&lt;/span&gt;Module is in the Idle state&lt;/div&gt;&lt;div&gt;if Module&amp;nbsp;is in the Idle&amp;nbsp;&lt;span style=&quot;background-color: transparent; color: light-dark(rgb(51, 51, 51), rgb(193, 193, 193));&quot;&gt;and SoC &amp;lt;&amp;nbsp;&lt;/span&gt;&lt;span style=&quot;background-color: transparent; color: light-dark(rgb(51, 51, 51), rgb(193, 193, 193));&quot;&gt;MaxPower&lt;/span&gt;&lt;/div&gt;&lt;div&gt;&lt;span style=&quot;white-space: pre;&quot;&gt;&#x9;&lt;/span&gt;Module is in the Charging state&lt;/div&gt;&lt;div&gt;&lt;div&gt;if Module&amp;nbsp;is in the Supplying&lt;/div&gt;&lt;div&gt;&lt;span style=&quot;white-space: pre;&quot;&gt;&#x9;&lt;/span&gt;Module is in the Charging state&lt;/div&gt;&lt;div&gt;&lt;br&gt;&lt;/div&gt;&lt;/div&gt;&lt;div&gt;&lt;br&gt;&lt;/div&gt;&lt;/div&gt;&lt;/div&gt;" style="shape=partialRectangle;html=1;whiteSpace=wrap;connectable=0;strokeColor=#DFDFDF;overflow=hidden;fillColor=#FFFFFF;top=1;left=1;bottom=1;right=1;pointerEvents=1;fontSize=12;align=left;verticalAlign=middle;spacingLeft=10;spacingRight=10;fontFamily=Helvetica;fontColor=#333333;gradientColor=none;" vertex="1" parent="t6atKej5fnVRMdNGpLLc-240">
          <mxGeometry x="90" width="590" height="96" as="geometry">
            <mxRectangle width="590" height="96" as="alternateBounds" />
          </mxGeometry>
        </mxCell>
        <mxCell id="t6atKej5fnVRMdNGpLLc-243" value="" style="shape=table;startSize=0;container=1;collapsible=0;childLayout=tableLayout;fontSize=16;rounded=0;strokeColor=default;swimlaneFillColor=none;gradientColor=none;" vertex="1" parent="1">
          <mxGeometry x="70" y="4373" width="680" height="220" as="geometry" />
        </mxCell>
        <mxCell id="t6atKej5fnVRMdNGpLLc-244" value="" style="shape=tableRow;horizontal=0;startSize=0;swimlaneHead=0;swimlaneBody=0;strokeColor=inherit;top=0;left=0;bottom=0;right=0;collapsible=0;dropTarget=0;fillColor=none;points=[[0,0.5],[1,0.5]];portConstraint=eastwest;fontSize=16;" vertex="1" parent="t6atKej5fnVRMdNGpLLc-243">
          <mxGeometry width="680" height="40" as="geometry" />
        </mxCell>
        <mxCell id="t6atKej5fnVRMdNGpLLc-245" value="&lt;b&gt;Name&lt;/b&gt;" style="shape=partialRectangle;html=1;whiteSpace=wrap;connectable=0;strokeColor=#DFDFDF;overflow=hidden;fillColor=#F7F7F7;top=1;left=1;bottom=1;right=1;pointerEvents=1;fontSize=12;align=left;verticalAlign=middle;spacingLeft=10;spacingRight=10;fontFamily=Helvetica;fontColor=#333333;gradientColor=none;" vertex="1" parent="t6atKej5fnVRMdNGpLLc-244">
          <mxGeometry width="90" height="40" as="geometry">
            <mxRectangle width="90" height="40" as="alternateBounds" />
          </mxGeometry>
        </mxCell>
        <mxCell id="t6atKej5fnVRMdNGpLLc-246" value="&lt;b&gt;stopSupplying&lt;/b&gt;" style="shape=partialRectangle;html=1;whiteSpace=wrap;connectable=0;strokeColor=#DFDFDF;overflow=hidden;fillColor=#F7F7F7;top=1;left=1;bottom=1;right=1;pointerEvents=1;fontSize=12;align=left;verticalAlign=middle;spacingLeft=10;spacingRight=10;fontFamily=Helvetica;fontColor=#333333;gradientColor=none;" vertex="1" parent="t6atKej5fnVRMdNGpLLc-244">
          <mxGeometry x="90" width="590" height="40" as="geometry">
            <mxRectangle width="590" height="40" as="alternateBounds" />
          </mxGeometry>
        </mxCell>
        <mxCell id="t6atKej5fnVRMdNGpLLc-247" value="" style="shape=tableRow;horizontal=0;startSize=0;swimlaneHead=0;swimlaneBody=0;strokeColor=inherit;top=0;left=0;bottom=0;right=0;collapsible=0;dropTarget=0;fillColor=none;points=[[0,0.5],[1,0.5]];portConstraint=eastwest;fontSize=16;" vertex="1" parent="t6atKej5fnVRMdNGpLLc-243">
          <mxGeometry y="40" width="680" height="50" as="geometry" />
        </mxCell>
        <mxCell id="t6atKej5fnVRMdNGpLLc-248" value="Description" style="shape=partialRectangle;html=1;whiteSpace=wrap;connectable=0;strokeColor=#DFDFDF;overflow=hidden;fillColor=#F7F7F7;top=1;left=1;bottom=1;right=1;pointerEvents=1;fontSize=12;align=left;verticalAlign=middle;spacingLeft=10;spacingRight=10;fontFamily=Helvetica;fontColor=#333333;gradientColor=none;" vertex="1" parent="t6atKej5fnVRMdNGpLLc-247">
          <mxGeometry width="90" height="50" as="geometry">
            <mxRectangle width="90" height="50" as="alternateBounds" />
          </mxGeometry>
        </mxCell>
        <mxCell id="t6atKej5fnVRMdNGpLLc-249" value="As an exterior event, if the Module is in the Supplying state, it moves the Module to the Idle state." style="shape=partialRectangle;html=1;whiteSpace=wrap;connectable=0;strokeColor=#DFDFDF;overflow=hidden;fillColor=#FFFFFF;top=1;left=1;bottom=1;right=1;pointerEvents=1;fontSize=12;align=left;verticalAlign=middle;spacingLeft=10;spacingRight=10;fontFamily=Helvetica;fontColor=#333333;gradientColor=none;" vertex="1" parent="t6atKej5fnVRMdNGpLLc-247">
          <mxGeometry x="90" width="590" height="50" as="geometry">
            <mxRectangle width="590" height="50" as="alternateBounds" />
          </mxGeometry>
        </mxCell>
        <mxCell id="t6atKej5fnVRMdNGpLLc-250" style="shape=tableRow;horizontal=0;startSize=0;swimlaneHead=0;swimlaneBody=0;strokeColor=inherit;top=0;left=0;bottom=0;right=0;collapsible=0;dropTarget=0;fillColor=none;points=[[0,0.5],[1,0.5]];portConstraint=eastwest;fontSize=16;" vertex="1" parent="t6atKej5fnVRMdNGpLLc-243">
          <mxGeometry y="90" width="680" height="40" as="geometry" />
        </mxCell>
        <mxCell id="t6atKej5fnVRMdNGpLLc-251" value="Changes" style="shape=partialRectangle;html=1;whiteSpace=wrap;connectable=0;strokeColor=#DFDFDF;overflow=hidden;fillColor=#F7F7F7;top=1;left=1;bottom=1;right=1;pointerEvents=1;fontSize=12;align=left;verticalAlign=middle;spacingLeft=10;spacingRight=10;fontFamily=Helvetica;fontColor=#333333;gradientColor=none;" vertex="1" parent="t6atKej5fnVRMdNGpLLc-250">
          <mxGeometry width="90" height="40" as="geometry">
            <mxRectangle width="90" height="40" as="alternateBounds" />
          </mxGeometry>
        </mxCell>
        <mxCell id="t6atKej5fnVRMdNGpLLc-252" value="Module" style="shape=partialRectangle;html=1;whiteSpace=wrap;connectable=0;strokeColor=#DFDFDF;overflow=hidden;fillColor=#FFFFFF;top=1;left=1;bottom=1;right=1;pointerEvents=1;fontSize=12;align=left;verticalAlign=middle;spacingLeft=10;spacingRight=10;fontFamily=Helvetica;fontColor=#333333;gradientColor=none;" vertex="1" parent="t6atKej5fnVRMdNGpLLc-250">
          <mxGeometry x="90" width="590" height="40" as="geometry">
            <mxRectangle width="590" height="40" as="alternateBounds" />
          </mxGeometry>
        </mxCell>
        <mxCell id="t6atKej5fnVRMdNGpLLc-253" style="shape=tableRow;horizontal=0;startSize=0;swimlaneHead=0;swimlaneBody=0;strokeColor=inherit;top=0;left=0;bottom=0;right=0;collapsible=0;dropTarget=0;fillColor=none;points=[[0,0.5],[1,0.5]];portConstraint=eastwest;fontSize=16;" vertex="1" parent="t6atKej5fnVRMdNGpLLc-243">
          <mxGeometry y="130" width="680" height="40" as="geometry" />
        </mxCell>
        <mxCell id="t6atKej5fnVRMdNGpLLc-254" value="Assumes" style="shape=partialRectangle;html=1;whiteSpace=wrap;connectable=0;strokeColor=#DFDFDF;overflow=hidden;fillColor=#F7F7F7;top=1;left=1;bottom=1;right=1;pointerEvents=1;fontSize=12;align=left;verticalAlign=middle;spacingLeft=10;spacingRight=10;fontFamily=Helvetica;fontColor=#333333;gradientColor=none;" vertex="1" parent="t6atKej5fnVRMdNGpLLc-253">
          <mxGeometry width="90" height="40" as="geometry">
            <mxRectangle width="90" height="40" as="alternateBounds" />
          </mxGeometry>
        </mxCell>
        <mxCell id="t6atKej5fnVRMdNGpLLc-255" value="The Module is in the Supplying&amp;nbsp;state" style="shape=partialRectangle;html=1;whiteSpace=wrap;connectable=0;strokeColor=#DFDFDF;overflow=hidden;fillColor=#FFFFFF;top=1;left=1;bottom=1;right=1;pointerEvents=1;fontSize=12;align=left;verticalAlign=middle;spacingLeft=10;spacingRight=10;fontFamily=Helvetica;fontColor=#333333;gradientColor=none;" vertex="1" parent="t6atKej5fnVRMdNGpLLc-253">
          <mxGeometry x="90" width="590" height="40" as="geometry">
            <mxRectangle width="590" height="40" as="alternateBounds" />
          </mxGeometry>
        </mxCell>
        <mxCell id="t6atKej5fnVRMdNGpLLc-256" style="shape=tableRow;horizontal=0;startSize=0;swimlaneHead=0;swimlaneBody=0;strokeColor=inherit;top=0;left=0;bottom=0;right=0;collapsible=0;dropTarget=0;fillColor=none;points=[[0,0.5],[1,0.5]];portConstraint=eastwest;fontSize=16;" vertex="1" parent="t6atKej5fnVRMdNGpLLc-243">
          <mxGeometry y="170" width="680" height="50" as="geometry" />
        </mxCell>
        <mxCell id="t6atKej5fnVRMdNGpLLc-257" value="Result" style="shape=partialRectangle;html=1;whiteSpace=wrap;connectable=0;strokeColor=#DFDFDF;overflow=hidden;fillColor=#F7F7F7;top=1;left=1;bottom=1;right=1;pointerEvents=1;fontSize=12;align=left;verticalAlign=middle;spacingLeft=10;spacingRight=10;fontFamily=Helvetica;fontColor=#333333;gradientColor=none;" vertex="1" parent="t6atKej5fnVRMdNGpLLc-256">
          <mxGeometry width="90" height="50" as="geometry">
            <mxRectangle width="90" height="50" as="alternateBounds" />
          </mxGeometry>
        </mxCell>
        <mxCell id="t6atKej5fnVRMdNGpLLc-258" value="If Module&amp;nbsp;is in the Supplying&amp;nbsp;state&amp;nbsp;&lt;div&gt;&lt;span style=&quot;background-color: transparent; color: light-dark(rgb(51, 51, 51), rgb(193, 193, 193)); white-space: pre;&quot;&gt;&#x9;&lt;/span&gt;&lt;span style=&quot;background-color: transparent; color: light-dark(rgb(51, 51, 51), rgb(193, 193, 193));&quot;&gt;Module is in the Idle state&lt;/span&gt;&lt;div&gt;&lt;br&gt;&lt;/div&gt;&lt;/div&gt;" style="shape=partialRectangle;html=1;whiteSpace=wrap;connectable=0;strokeColor=#DFDFDF;overflow=hidden;fillColor=#FFFFFF;top=1;left=1;bottom=1;right=1;pointerEvents=1;fontSize=12;align=left;verticalAlign=middle;spacingLeft=10;spacingRight=10;fontFamily=Helvetica;fontColor=#333333;gradientColor=none;" vertex="1" parent="t6atKej5fnVRMdNGpLLc-256">
          <mxGeometry x="90" width="590" height="50" as="geometry">
            <mxRectangle width="590" height="50" as="alternateBounds" />
          </mxGeometry>
        </mxCell>
        <mxCell id="t6atKej5fnVRMdNGpLLc-260" value="&lt;font color=&quot;#0070f2&quot; face=&quot;arial&quot; style=&quot;font-size: 16px;&quot;&gt;&lt;b style=&quot;font-size: 16px;&quot;&gt;PoweSupplyingPart&lt;/b&gt;&lt;/font&gt;" style="text;html=1;align=left;verticalAlign=middle;resizable=0;points=[];autosize=1;strokeColor=none;fillColor=none;fontSize=12;fontColor=#1d2d3e;fontFamily=Helvetica;" vertex="1" parent="1">
          <mxGeometry x="60" y="3610" width="170" height="30" as="geometry" />
        </mxCell>
        <mxCell id="t6atKej5fnVRMdNGpLLc-261" value="" style="rounded=1;whiteSpace=wrap;html=1;strokeColor=#475E75;fillColor=#F5F6F7;arcSize=24;absoluteArcSize=1;imageWidth=64;imageHeight=64;strokeWidth=1.5;" vertex="1" parent="1">
          <mxGeometry x="40" y="4730" width="740" height="740" as="geometry" />
        </mxCell>
        <mxCell id="t6atKej5fnVRMdNGpLLc-262" value="&lt;b&gt;Functional Model&lt;/b&gt;" style="rounded=1;whiteSpace=wrap;html=1;strokeWidth=1.5;arcSize=16;perimeterSpacing=0;absoluteArcSize=1;" vertex="1" parent="1">
          <mxGeometry x="50" y="4740" width="130" height="30" as="geometry" />
        </mxCell>
        <mxCell id="t6atKej5fnVRMdNGpLLc-263" value="&lt;font size=&quot;1&quot; color=&quot;#475f75&quot;&gt;&lt;b style=&quot;&quot;&gt;Operation Specification&lt;/b&gt;&lt;/font&gt;" style="rounded=1;whiteSpace=wrap;html=1;arcSize=50;strokeColor=#475f75;fillColor=default;strokeWidth=1.5;" vertex="1" parent="1">
          <mxGeometry x="193" y="4747" width="127" height="16" as="geometry" />
        </mxCell>
        <mxCell id="t6atKej5fnVRMdNGpLLc-264" value="" style="shape=table;startSize=0;container=1;collapsible=0;childLayout=tableLayout;fontSize=16;rounded=0;strokeColor=default;swimlaneFillColor=none;gradientColor=none;" vertex="1" parent="1">
          <mxGeometry x="70" y="4880" width="680" height="230" as="geometry" />
        </mxCell>
        <mxCell id="t6atKej5fnVRMdNGpLLc-265" value="" style="shape=tableRow;horizontal=0;startSize=0;swimlaneHead=0;swimlaneBody=0;strokeColor=inherit;top=0;left=0;bottom=0;right=0;collapsible=0;dropTarget=0;fillColor=none;points=[[0,0.5],[1,0.5]];portConstraint=eastwest;fontSize=16;" vertex="1" parent="t6atKej5fnVRMdNGpLLc-264">
          <mxGeometry width="680" height="40" as="geometry" />
        </mxCell>
        <mxCell id="t6atKej5fnVRMdNGpLLc-266" value="&lt;b&gt;Name&lt;/b&gt;" style="shape=partialRectangle;html=1;whiteSpace=wrap;connectable=0;strokeColor=#DFDFDF;overflow=hidden;fillColor=#F7F7F7;top=1;left=1;bottom=1;right=1;pointerEvents=1;fontSize=12;align=left;verticalAlign=middle;spacingLeft=10;spacingRight=10;fontFamily=Helvetica;fontColor=#333333;gradientColor=none;" vertex="1" parent="t6atKej5fnVRMdNGpLLc-265">
          <mxGeometry width="90" height="40" as="geometry">
            <mxRectangle width="90" height="40" as="alternateBounds" />
          </mxGeometry>
        </mxCell>
        <mxCell id="t6atKej5fnVRMdNGpLLc-267" value="&lt;b&gt;startCharging&lt;/b&gt;" style="shape=partialRectangle;html=1;whiteSpace=wrap;connectable=0;strokeColor=#DFDFDF;overflow=hidden;fillColor=#F7F7F7;top=1;left=1;bottom=1;right=1;pointerEvents=1;fontSize=12;align=left;verticalAlign=middle;spacingLeft=10;spacingRight=10;fontFamily=Helvetica;fontColor=#333333;gradientColor=none;" vertex="1" parent="t6atKej5fnVRMdNGpLLc-265">
          <mxGeometry x="90" width="590" height="40" as="geometry">
            <mxRectangle width="590" height="40" as="alternateBounds" />
          </mxGeometry>
        </mxCell>
        <mxCell id="t6atKej5fnVRMdNGpLLc-268" value="" style="shape=tableRow;horizontal=0;startSize=0;swimlaneHead=0;swimlaneBody=0;strokeColor=inherit;top=0;left=0;bottom=0;right=0;collapsible=0;dropTarget=0;fillColor=none;points=[[0,0.5],[1,0.5]];portConstraint=eastwest;fontSize=16;" vertex="1" parent="t6atKej5fnVRMdNGpLLc-264">
          <mxGeometry y="40" width="680" height="60" as="geometry" />
        </mxCell>
        <mxCell id="t6atKej5fnVRMdNGpLLc-269" value="Description" style="shape=partialRectangle;html=1;whiteSpace=wrap;connectable=0;strokeColor=#DFDFDF;overflow=hidden;fillColor=#F7F7F7;top=1;left=1;bottom=1;right=1;pointerEvents=1;fontSize=12;align=left;verticalAlign=middle;spacingLeft=10;spacingRight=10;fontFamily=Helvetica;fontColor=#333333;gradientColor=none;" vertex="1" parent="t6atKej5fnVRMdNGpLLc-268">
          <mxGeometry width="90" height="60" as="geometry">
            <mxRectangle width="90" height="60" as="alternateBounds" />
          </mxGeometry>
        </mxCell>
        <mxCell id="t6atKej5fnVRMdNGpLLc-270" value="As an exterior event, if the Module is in the Charging&amp;nbsp;state, it moves the Module to the Idle state." style="shape=partialRectangle;html=1;whiteSpace=wrap;connectable=0;strokeColor=#DFDFDF;overflow=hidden;fillColor=#FFFFFF;top=1;left=1;bottom=1;right=1;pointerEvents=1;fontSize=12;align=left;verticalAlign=middle;spacingLeft=10;spacingRight=10;fontFamily=Helvetica;fontColor=#333333;gradientColor=none;" vertex="1" parent="t6atKej5fnVRMdNGpLLc-268">
          <mxGeometry x="90" width="590" height="60" as="geometry">
            <mxRectangle width="590" height="60" as="alternateBounds" />
          </mxGeometry>
        </mxCell>
        <mxCell id="t6atKej5fnVRMdNGpLLc-274" style="shape=tableRow;horizontal=0;startSize=0;swimlaneHead=0;swimlaneBody=0;strokeColor=inherit;top=0;left=0;bottom=0;right=0;collapsible=0;dropTarget=0;fillColor=none;points=[[0,0.5],[1,0.5]];portConstraint=eastwest;fontSize=16;" vertex="1" parent="t6atKej5fnVRMdNGpLLc-264">
          <mxGeometry y="100" width="680" height="40" as="geometry" />
        </mxCell>
        <mxCell id="t6atKej5fnVRMdNGpLLc-275" value="Changes" style="shape=partialRectangle;html=1;whiteSpace=wrap;connectable=0;strokeColor=#DFDFDF;overflow=hidden;fillColor=#F7F7F7;top=1;left=1;bottom=1;right=1;pointerEvents=1;fontSize=12;align=left;verticalAlign=middle;spacingLeft=10;spacingRight=10;fontFamily=Helvetica;fontColor=#333333;gradientColor=none;" vertex="1" parent="t6atKej5fnVRMdNGpLLc-274">
          <mxGeometry width="90" height="40" as="geometry">
            <mxRectangle width="90" height="40" as="alternateBounds" />
          </mxGeometry>
        </mxCell>
        <mxCell id="t6atKej5fnVRMdNGpLLc-276" value="Module" style="shape=partialRectangle;html=1;whiteSpace=wrap;connectable=0;strokeColor=#DFDFDF;overflow=hidden;fillColor=#FFFFFF;top=1;left=1;bottom=1;right=1;pointerEvents=1;fontSize=12;align=left;verticalAlign=middle;spacingLeft=10;spacingRight=10;fontFamily=Helvetica;fontColor=#333333;gradientColor=none;" vertex="1" parent="t6atKej5fnVRMdNGpLLc-274">
          <mxGeometry x="90" width="590" height="40" as="geometry">
            <mxRectangle width="590" height="40" as="alternateBounds" />
          </mxGeometry>
        </mxCell>
        <mxCell id="t6atKej5fnVRMdNGpLLc-277" style="shape=tableRow;horizontal=0;startSize=0;swimlaneHead=0;swimlaneBody=0;strokeColor=inherit;top=0;left=0;bottom=0;right=0;collapsible=0;dropTarget=0;fillColor=none;points=[[0,0.5],[1,0.5]];portConstraint=eastwest;fontSize=16;" vertex="1" parent="t6atKej5fnVRMdNGpLLc-264">
          <mxGeometry y="140" width="680" height="40" as="geometry" />
        </mxCell>
        <mxCell id="t6atKej5fnVRMdNGpLLc-278" value="Assumes" style="shape=partialRectangle;html=1;whiteSpace=wrap;connectable=0;strokeColor=#DFDFDF;overflow=hidden;fillColor=#F7F7F7;top=1;left=1;bottom=1;right=1;pointerEvents=1;fontSize=12;align=left;verticalAlign=middle;spacingLeft=10;spacingRight=10;fontFamily=Helvetica;fontColor=#333333;gradientColor=none;" vertex="1" parent="t6atKej5fnVRMdNGpLLc-277">
          <mxGeometry width="90" height="40" as="geometry">
            <mxRectangle width="90" height="40" as="alternateBounds" />
          </mxGeometry>
        </mxCell>
        <mxCell id="t6atKej5fnVRMdNGpLLc-279" value="The Module is in the Charging state" style="shape=partialRectangle;html=1;whiteSpace=wrap;connectable=0;strokeColor=#DFDFDF;overflow=hidden;fillColor=#FFFFFF;top=1;left=1;bottom=1;right=1;pointerEvents=1;fontSize=12;align=left;verticalAlign=middle;spacingLeft=10;spacingRight=10;fontFamily=Helvetica;fontColor=#333333;gradientColor=none;" vertex="1" parent="t6atKej5fnVRMdNGpLLc-277">
          <mxGeometry x="90" width="590" height="40" as="geometry">
            <mxRectangle width="590" height="40" as="alternateBounds" />
          </mxGeometry>
        </mxCell>
        <mxCell id="t6atKej5fnVRMdNGpLLc-280" style="shape=tableRow;horizontal=0;startSize=0;swimlaneHead=0;swimlaneBody=0;strokeColor=inherit;top=0;left=0;bottom=0;right=0;collapsible=0;dropTarget=0;fillColor=none;points=[[0,0.5],[1,0.5]];portConstraint=eastwest;fontSize=16;" vertex="1" parent="t6atKej5fnVRMdNGpLLc-264">
          <mxGeometry y="180" width="680" height="50" as="geometry" />
        </mxCell>
        <mxCell id="t6atKej5fnVRMdNGpLLc-281" value="Result" style="shape=partialRectangle;html=1;whiteSpace=wrap;connectable=0;strokeColor=#DFDFDF;overflow=hidden;fillColor=#F7F7F7;top=1;left=1;bottom=1;right=1;pointerEvents=1;fontSize=12;align=left;verticalAlign=middle;spacingLeft=10;spacingRight=10;fontFamily=Helvetica;fontColor=#333333;gradientColor=none;" vertex="1" parent="t6atKej5fnVRMdNGpLLc-280">
          <mxGeometry width="90" height="50" as="geometry">
            <mxRectangle width="90" height="50" as="alternateBounds" />
          </mxGeometry>
        </mxCell>
        <mxCell id="t6atKej5fnVRMdNGpLLc-282" value="&lt;div&gt;If Module&amp;nbsp;is in the Charging&amp;nbsp;state&amp;nbsp;&lt;div&gt;&lt;span style=&quot;background-color: transparent; color: light-dark(rgb(51, 51, 51), rgb(193, 193, 193)); white-space: pre;&quot;&gt;&#x9;&lt;/span&gt;&lt;span style=&quot;background-color: transparent; color: light-dark(rgb(51, 51, 51), rgb(193, 193, 193));&quot;&gt;Module is in the Idle state&lt;/span&gt;&lt;div&gt;&lt;br&gt;&lt;/div&gt;&lt;/div&gt;&lt;/div&gt;" style="shape=partialRectangle;html=1;whiteSpace=wrap;connectable=0;strokeColor=#DFDFDF;overflow=hidden;fillColor=#FFFFFF;top=1;left=1;bottom=1;right=1;pointerEvents=1;fontSize=12;align=left;verticalAlign=middle;spacingLeft=10;spacingRight=10;fontFamily=Helvetica;fontColor=#333333;gradientColor=none;" vertex="1" parent="t6atKej5fnVRMdNGpLLc-280">
          <mxGeometry x="90" width="590" height="50" as="geometry">
            <mxRectangle width="590" height="50" as="alternateBounds" />
          </mxGeometry>
        </mxCell>
        <mxCell id="t6atKej5fnVRMdNGpLLc-283" value="" style="group;glass=0;shadow=0;" vertex="1" connectable="0" parent="1">
          <mxGeometry x="640" y="4750" width="130" height="90" as="geometry" />
        </mxCell>
        <mxCell id="t6atKej5fnVRMdNGpLLc-284" value="" style="shape=parallelogram;html=1;strokeWidth=1;perimeter=parallelogramPerimeter;whiteSpace=wrap;rounded=1;arcSize=12;size=0.23;shadow=0;" vertex="1" parent="t6atKej5fnVRMdNGpLLc-283">
          <mxGeometry x="92.85714285714286" y="24" width="37.142857142857146" height="12" as="geometry" />
        </mxCell>
        <mxCell id="t6atKej5fnVRMdNGpLLc-285" value="" style="shape=parallelogram;html=1;strokeWidth=1;perimeter=parallelogramPerimeter;whiteSpace=wrap;rounded=1;arcSize=12;size=0.23;shadow=0;" vertex="1" parent="t6atKej5fnVRMdNGpLLc-283">
          <mxGeometry x="49.523809523809526" width="37.142857142857146" height="12" as="geometry" />
        </mxCell>
        <mxCell id="t6atKej5fnVRMdNGpLLc-286" value="" style="shape=parallelogram;html=1;strokeWidth=1;perimeter=parallelogramPerimeter;whiteSpace=wrap;rounded=1;arcSize=12;size=0.23;shadow=0;fillColor=#000000;" vertex="1" parent="t6atKej5fnVRMdNGpLLc-283">
          <mxGeometry y="24" width="37.142857142857146" height="12" as="geometry" />
        </mxCell>
        <mxCell id="t6atKej5fnVRMdNGpLLc-287" value="" style="edgeStyle=isometricEdgeStyle;endArrow=none;html=1;elbow=vertical;rounded=0;entryX=1;entryY=0.5;entryDx=0;entryDy=0;exitX=1;exitY=0.5;exitDx=0;exitDy=0;" edge="1" parent="t6atKej5fnVRMdNGpLLc-283" source="t6atKej5fnVRMdNGpLLc-285" target="t6atKej5fnVRMdNGpLLc-285">
          <mxGeometry width="50" height="100" relative="1" as="geometry">
            <mxPoint x="89.76190476190476" y="72" as="sourcePoint" />
            <mxPoint x="120.71428571428572" y="12" as="targetPoint" />
            <Array as="points" />
          </mxGeometry>
        </mxCell>
        <mxCell id="t6atKej5fnVRMdNGpLLc-288" value="" style="endArrow=open;html=1;rounded=0;endSize=2;entryX=1;entryY=0.5;entryDx=0;entryDy=0;exitX=0.598;exitY=-0.024;exitDx=0;exitDy=0;exitPerimeter=0;startArrow=open;startFill=0;endFill=0;startSize=2;" edge="1" parent="t6atKej5fnVRMdNGpLLc-283" source="t6atKej5fnVRMdNGpLLc-284" target="t6atKej5fnVRMdNGpLLc-285">
          <mxGeometry width="50" height="50" relative="1" as="geometry">
            <mxPoint x="117.61904761904762" y="30" as="sourcePoint" />
            <mxPoint x="94.77619047619042" y="12" as="targetPoint" />
            <Array as="points">
              <mxPoint x="123.80952380952381" y="6" />
            </Array>
          </mxGeometry>
        </mxCell>
        <mxCell id="t6atKej5fnVRMdNGpLLc-289" value="" style="endArrow=open;html=1;rounded=0;endSize=2;entryX=0;entryY=0.5;entryDx=0;entryDy=0;exitX=0.5;exitY=0;exitDx=0;exitDy=0;strokeColor=default;align=center;verticalAlign=middle;fontFamily=Helvetica;fontSize=11;fontColor=default;labelBackgroundColor=default;startArrow=open;startFill=0;startSize=2;endFill=0;" edge="1" parent="t6atKej5fnVRMdNGpLLc-283" source="t6atKej5fnVRMdNGpLLc-286" target="t6atKej5fnVRMdNGpLLc-285">
          <mxGeometry width="50" height="50" relative="1" as="geometry">
            <mxPoint x="59.42857142857143" y="24" as="sourcePoint" />
            <mxPoint x="51.38095238095238" y="12" as="targetPoint" />
            <Array as="points">
              <mxPoint x="30.952380952380953" y="6" />
            </Array>
          </mxGeometry>
        </mxCell>
        <mxCell id="t6atKej5fnVRMdNGpLLc-290" value="" style="shape=cube;whiteSpace=wrap;html=1;boundedLbl=1;backgroundOutline=1;darkOpacity=0.05;darkOpacity2=0.1;size=10;shadow=1;" vertex="1" parent="t6atKej5fnVRMdNGpLLc-283">
          <mxGeometry x="52.61904761904762" y="25.2" width="24.761904761904763" height="36" as="geometry" />
        </mxCell>
        <mxCell id="t6atKej5fnVRMdNGpLLc-291" value="" style="endArrow=block;html=1;rounded=0;exitX=0.475;exitY=0.969;exitDx=0;exitDy=0;exitPerimeter=0;entryX=0.332;entryY=-0.012;entryDx=0;entryDy=0;entryPerimeter=0;endSize=2;strokeColor=default;align=center;verticalAlign=middle;fontFamily=Helvetica;fontSize=11;fontColor=default;labelBackgroundColor=default;endFill=1;" edge="1" parent="t6atKej5fnVRMdNGpLLc-283" source="t6atKej5fnVRMdNGpLLc-285" target="t6atKej5fnVRMdNGpLLc-290">
          <mxGeometry width="50" height="50" relative="1" as="geometry">
            <mxPoint x="74.28571428571429" y="78" as="sourcePoint" />
            <mxPoint x="105.23809523809524" y="48" as="targetPoint" />
          </mxGeometry>
        </mxCell>
        <mxCell id="t6atKej5fnVRMdNGpLLc-292" value="" style="endArrow=block;html=1;rounded=0;exitX=0;exitY=0.25;exitDx=0;exitDy=0;entryX=0.753;entryY=0.083;entryDx=0;entryDy=0;entryPerimeter=0;endSize=2;strokeColor=default;align=center;verticalAlign=middle;fontFamily=Helvetica;fontSize=11;fontColor=default;labelBackgroundColor=default;endFill=1;" edge="1" parent="t6atKej5fnVRMdNGpLLc-283" source="t6atKej5fnVRMdNGpLLc-284" target="t6atKej5fnVRMdNGpLLc-290">
          <mxGeometry width="50" height="50" relative="1" as="geometry">
            <mxPoint x="71.19047619047619" y="18" as="sourcePoint" />
            <mxPoint x="71.19047619047619" y="30" as="targetPoint" />
          </mxGeometry>
        </mxCell>
        <mxCell id="t6atKej5fnVRMdNGpLLc-293" value="" style="endArrow=block;html=1;rounded=0;exitX=0.93;exitY=0.361;exitDx=0;exitDy=0;entryX=-0.052;entryY=0.085;entryDx=0;entryDy=0;entryPerimeter=0;endSize=2;exitPerimeter=0;endFill=1;" edge="1" parent="t6atKej5fnVRMdNGpLLc-283" source="t6atKej5fnVRMdNGpLLc-286" target="t6atKej5fnVRMdNGpLLc-290">
          <mxGeometry width="50" height="50" relative="1" as="geometry">
            <mxPoint x="104.61904761904762" y="34.199999999999996" as="sourcePoint" />
            <mxPoint x="83.57142857142857" y="34.199999999999996" as="targetPoint" />
          </mxGeometry>
        </mxCell>
        <mxCell id="t6atKej5fnVRMdNGpLLc-294" value="" style="shape=parallelogram;html=1;strokeWidth=1;perimeter=parallelogramPerimeter;whiteSpace=wrap;rounded=1;arcSize=12;size=0.23;shadow=1;" vertex="1" parent="t6atKej5fnVRMdNGpLLc-283">
          <mxGeometry x="86.66666666666667" y="54" width="37.142857142857146" height="12" as="geometry" />
        </mxCell>
        <mxCell id="t6atKej5fnVRMdNGpLLc-295" value="" style="shape=parallelogram;html=1;strokeWidth=1;perimeter=parallelogramPerimeter;whiteSpace=wrap;rounded=1;arcSize=12;size=0.23;shadow=1;" vertex="1" parent="t6atKej5fnVRMdNGpLLc-283">
          <mxGeometry x="24.761904761904763" y="78" width="37.142857142857146" height="12" as="geometry" />
        </mxCell>
        <mxCell id="t6atKej5fnVRMdNGpLLc-296" value="" style="shape=parallelogram;html=1;strokeWidth=1;perimeter=parallelogramPerimeter;whiteSpace=wrap;rounded=1;arcSize=12;size=0.23;shadow=1;" vertex="1" parent="t6atKej5fnVRMdNGpLLc-283">
          <mxGeometry y="54" width="37.142857142857146" height="12" as="geometry" />
        </mxCell>
        <mxCell id="t6atKej5fnVRMdNGpLLc-297" value="" style="edgeStyle=isometricEdgeStyle;endArrow=none;html=1;elbow=vertical;rounded=0;entryX=1;entryY=0.5;entryDx=0;entryDy=0;exitX=1;exitY=0.5;exitDx=0;exitDy=0;" edge="1" parent="t6atKej5fnVRMdNGpLLc-283" source="t6atKej5fnVRMdNGpLLc-295" target="t6atKej5fnVRMdNGpLLc-295">
          <mxGeometry width="50" height="100" relative="1" as="geometry">
            <mxPoint x="83.57142857142857" y="102" as="sourcePoint" />
            <mxPoint x="114.52380952380953" y="42" as="targetPoint" />
            <Array as="points" />
          </mxGeometry>
        </mxCell>
        <mxCell id="t6atKej5fnVRMdNGpLLc-298" value="" style="endArrow=open;html=1;rounded=0;endSize=2;entryX=1;entryY=0.5;entryDx=0;entryDy=0;exitX=0.421;exitY=1.024;exitDx=0;exitDy=0;exitPerimeter=0;strokeColor=default;align=center;verticalAlign=middle;fontFamily=Helvetica;fontSize=11;fontColor=default;labelBackgroundColor=default;startArrow=open;startFill=0;startSize=2;endFill=0;" edge="1" parent="t6atKej5fnVRMdNGpLLc-283" source="t6atKej5fnVRMdNGpLLc-294" target="t6atKej5fnVRMdNGpLLc-295">
          <mxGeometry width="50" height="50" relative="1" as="geometry">
            <mxPoint x="111.42857142857143" y="60" as="sourcePoint" />
            <mxPoint x="88.58571428571423" y="42" as="targetPoint" />
            <Array as="points">
              <mxPoint x="92.85714285714286" y="84" />
            </Array>
          </mxGeometry>
        </mxCell>
        <mxCell id="t6atKej5fnVRMdNGpLLc-299" value="" style="endArrow=open;html=1;rounded=0;endSize=2;entryX=0;entryY=0.5;entryDx=0;entryDy=0;exitX=0.405;exitY=1.002;exitDx=0;exitDy=0;exitPerimeter=0;strokeColor=default;align=center;verticalAlign=middle;fontFamily=Helvetica;fontSize=11;fontColor=default;labelBackgroundColor=default;startArrow=open;startFill=0;startSize=2;endFill=0;" edge="1" parent="t6atKej5fnVRMdNGpLLc-283" source="t6atKej5fnVRMdNGpLLc-296" target="t6atKej5fnVRMdNGpLLc-295">
          <mxGeometry width="50" height="50" relative="1" as="geometry">
            <mxPoint x="53.23809523809524" y="54" as="sourcePoint" />
            <mxPoint x="45.19047619047619" y="42" as="targetPoint" />
            <Array as="points">
              <mxPoint y="84" />
            </Array>
          </mxGeometry>
        </mxCell>
        <mxCell id="t6atKej5fnVRMdNGpLLc-300" value="" style="endArrow=block;html=1;rounded=0;exitX=0.605;exitY=-0.013;exitDx=0;exitDy=0;exitPerimeter=0;entryX=0.326;entryY=1.008;entryDx=0;entryDy=0;entryPerimeter=0;endSize=2;strokeColor=default;align=center;verticalAlign=middle;fontFamily=Helvetica;fontSize=11;fontColor=default;labelBackgroundColor=default;endFill=1;" edge="1" parent="t6atKej5fnVRMdNGpLLc-283" source="t6atKej5fnVRMdNGpLLc-295" target="t6atKej5fnVRMdNGpLLc-290">
          <mxGeometry width="50" height="50" relative="1" as="geometry">
            <mxPoint x="68.0952380952381" y="108" as="sourcePoint" />
            <mxPoint x="58.80952380952381" y="55.199999999999996" as="targetPoint" />
          </mxGeometry>
        </mxCell>
        <mxCell id="t6atKej5fnVRMdNGpLLc-301" value="" style="endArrow=block;html=1;rounded=0;exitX=0;exitY=0.25;exitDx=0;exitDy=0;endSize=2;entryX=1.006;entryY=0.917;entryDx=0;entryDy=0;entryPerimeter=0;strokeColor=default;align=center;verticalAlign=middle;fontFamily=Helvetica;fontSize=11;fontColor=default;labelBackgroundColor=default;endFill=1;" edge="1" parent="t6atKej5fnVRMdNGpLLc-283" source="t6atKej5fnVRMdNGpLLc-294" target="t6atKej5fnVRMdNGpLLc-290">
          <mxGeometry width="50" height="50" relative="1" as="geometry">
            <mxPoint x="65" y="48" as="sourcePoint" />
            <mxPoint x="80.47619047619048" y="58.199999999999996" as="targetPoint" />
          </mxGeometry>
        </mxCell>
        <mxCell id="t6atKej5fnVRMdNGpLLc-302" value="" style="endArrow=block;html=1;rounded=0;exitX=0.93;exitY=0.361;exitDx=0;exitDy=0;entryX=0.047;entryY=0.917;entryDx=0;entryDy=0;entryPerimeter=0;endSize=2;exitPerimeter=0;strokeColor=default;align=center;verticalAlign=middle;fontFamily=Helvetica;fontSize=11;fontColor=default;labelBackgroundColor=default;endFill=1;" edge="1" parent="t6atKej5fnVRMdNGpLLc-283" source="t6atKej5fnVRMdNGpLLc-296" target="t6atKej5fnVRMdNGpLLc-290">
          <mxGeometry width="50" height="50" relative="1" as="geometry">
            <mxPoint x="98.42857142857143" y="64.2" as="sourcePoint" />
            <mxPoint x="48.285714285714285" y="58.199999999999996" as="targetPoint" />
          </mxGeometry>
        </mxCell>
        <mxCell id="t6atKej5fnVRMdNGpLLc-303" value="" style="endArrow=open;startArrow=open;html=1;rounded=0;entryX=0.5;entryY=1;entryDx=0;entryDy=0;exitX=0.5;exitY=0;exitDx=0;exitDy=0;endSize=2;startSize=2;startFill=0;endFill=0;" edge="1" parent="t6atKej5fnVRMdNGpLLc-283" source="t6atKej5fnVRMdNGpLLc-296" target="t6atKej5fnVRMdNGpLLc-286">
          <mxGeometry width="50" height="50" relative="1" as="geometry">
            <mxPoint x="12.380952380952381" y="60" as="sourcePoint" />
            <mxPoint x="43.333333333333336" y="30" as="targetPoint" />
          </mxGeometry>
        </mxCell>
        <mxCell id="t6atKej5fnVRMdNGpLLc-304" value="" style="endArrow=open;startArrow=open;html=1;rounded=0;entryX=0.409;entryY=0.996;entryDx=0;entryDy=0;exitX=0.572;exitY=0.009;exitDx=0;exitDy=0;endSize=2;startSize=2;startFill=0;endFill=0;entryPerimeter=0;exitPerimeter=0;" edge="1" parent="t6atKej5fnVRMdNGpLLc-283" source="t6atKej5fnVRMdNGpLLc-294" target="t6atKej5fnVRMdNGpLLc-284">
          <mxGeometry width="50" height="50" relative="1" as="geometry">
            <mxPoint x="111.31095238095239" y="54" as="sourcePoint" />
            <mxPoint x="111.31095238095239" y="36" as="targetPoint" />
          </mxGeometry>
        </mxCell>
        <mxCell id="t6atKej5fnVRMdNGpLLc-305" value="" style="shape=table;startSize=0;container=1;collapsible=0;childLayout=tableLayout;fontSize=16;rounded=0;strokeColor=default;swimlaneFillColor=none;gradientColor=none;" vertex="1" parent="1">
          <mxGeometry x="70" y="5144" width="680" height="290" as="geometry" />
        </mxCell>
        <mxCell id="t6atKej5fnVRMdNGpLLc-306" value="" style="shape=tableRow;horizontal=0;startSize=0;swimlaneHead=0;swimlaneBody=0;strokeColor=inherit;top=0;left=0;bottom=0;right=0;collapsible=0;dropTarget=0;fillColor=none;points=[[0,0.5],[1,0.5]];portConstraint=eastwest;fontSize=16;" vertex="1" parent="t6atKej5fnVRMdNGpLLc-305">
          <mxGeometry width="680" height="40" as="geometry" />
        </mxCell>
        <mxCell id="t6atKej5fnVRMdNGpLLc-307" value="&lt;b&gt;Name&lt;/b&gt;" style="shape=partialRectangle;html=1;whiteSpace=wrap;connectable=0;strokeColor=#DFDFDF;overflow=hidden;fillColor=#F7F7F7;top=1;left=1;bottom=1;right=1;pointerEvents=1;fontSize=12;align=left;verticalAlign=middle;spacingLeft=10;spacingRight=10;fontFamily=Helvetica;fontColor=#333333;gradientColor=none;" vertex="1" parent="t6atKej5fnVRMdNGpLLc-306">
          <mxGeometry width="90" height="40" as="geometry">
            <mxRectangle width="90" height="40" as="alternateBounds" />
          </mxGeometry>
        </mxCell>
        <mxCell id="t6atKej5fnVRMdNGpLLc-308" value="&lt;b&gt;CheckSoC&lt;/b&gt;" style="shape=partialRectangle;html=1;whiteSpace=wrap;connectable=0;strokeColor=#DFDFDF;overflow=hidden;fillColor=#F7F7F7;top=1;left=1;bottom=1;right=1;pointerEvents=1;fontSize=12;align=left;verticalAlign=middle;spacingLeft=10;spacingRight=10;fontFamily=Helvetica;fontColor=#333333;gradientColor=none;" vertex="1" parent="t6atKej5fnVRMdNGpLLc-306">
          <mxGeometry x="90" width="590" height="40" as="geometry">
            <mxRectangle width="590" height="40" as="alternateBounds" />
          </mxGeometry>
        </mxCell>
        <mxCell id="t6atKej5fnVRMdNGpLLc-309" value="" style="shape=tableRow;horizontal=0;startSize=0;swimlaneHead=0;swimlaneBody=0;strokeColor=inherit;top=0;left=0;bottom=0;right=0;collapsible=0;dropTarget=0;fillColor=none;points=[[0,0.5],[1,0.5]];portConstraint=eastwest;fontSize=16;" vertex="1" parent="t6atKej5fnVRMdNGpLLc-305">
          <mxGeometry y="40" width="680" height="50" as="geometry" />
        </mxCell>
        <mxCell id="t6atKej5fnVRMdNGpLLc-310" value="Description" style="shape=partialRectangle;html=1;whiteSpace=wrap;connectable=0;strokeColor=#DFDFDF;overflow=hidden;fillColor=#F7F7F7;top=1;left=1;bottom=1;right=1;pointerEvents=1;fontSize=12;align=left;verticalAlign=middle;spacingLeft=10;spacingRight=10;fontFamily=Helvetica;fontColor=#333333;gradientColor=none;" vertex="1" parent="t6atKej5fnVRMdNGpLLc-309">
          <mxGeometry width="90" height="50" as="geometry">
            <mxRectangle width="90" height="50" as="alternateBounds" />
          </mxGeometry>
        </mxCell>
        <mxCell id="t6atKej5fnVRMdNGpLLc-311" value="As an&amp;nbsp;&lt;span style=&quot;background-color: transparent; color: light-dark(rgb(51, 51, 51), rgb(193, 193, 193));&quot;&gt;Interval-based&amp;nbsp;&lt;/span&gt;&lt;span style=&quot;background-color: transparent; color: light-dark(rgb(51, 51, 51), rgb(193, 193, 193));&quot;&gt;process, if the Module is in the&amp;nbsp;&lt;/span&gt;Charging&amp;nbsp;&lt;span style=&quot;background-color: transparent; color: light-dark(rgb(51, 51, 51), rgb(193, 193, 193));&quot;&gt;and the SoC equals MaxPower,&amp;nbsp;&lt;/span&gt;moves the Module to the Idle state.&lt;span style=&quot;background-color: transparent; color: light-dark(rgb(51, 51, 51), rgb(193, 193, 193));&quot;&gt;&amp;nbsp;If the Module is in the&amp;nbsp;&lt;/span&gt;Supplying&amp;nbsp;&lt;span style=&quot;background-color: transparent; color: light-dark(rgb(51, 51, 51), rgb(193, 193, 193));&quot;&gt;and the SoC is zero, it moves the Module to the&amp;nbsp;&lt;/span&gt;Idle&amp;nbsp;&lt;span style=&quot;background-color: transparent; color: light-dark(rgb(51, 51, 51), rgb(193, 193, 193));&quot;&gt;state.&lt;/span&gt;" style="shape=partialRectangle;html=1;whiteSpace=wrap;connectable=0;strokeColor=#DFDFDF;overflow=hidden;fillColor=#FFFFFF;top=1;left=1;bottom=1;right=1;pointerEvents=1;fontSize=12;align=left;verticalAlign=middle;spacingLeft=10;spacingRight=10;fontFamily=Helvetica;fontColor=#333333;gradientColor=none;" vertex="1" parent="t6atKej5fnVRMdNGpLLc-309">
          <mxGeometry x="90" width="590" height="50" as="geometry">
            <mxRectangle width="590" height="50" as="alternateBounds" />
          </mxGeometry>
        </mxCell>
        <mxCell id="t6atKej5fnVRMdNGpLLc-312" value="" style="shape=tableRow;horizontal=0;startSize=0;swimlaneHead=0;swimlaneBody=0;strokeColor=inherit;top=0;left=0;bottom=0;right=0;collapsible=0;dropTarget=0;fillColor=none;points=[[0,0.5],[1,0.5]];portConstraint=eastwest;fontSize=16;" vertex="1" parent="t6atKej5fnVRMdNGpLLc-305">
          <mxGeometry y="90" width="680" height="40" as="geometry" />
        </mxCell>
        <mxCell id="t6atKej5fnVRMdNGpLLc-313" value="Reads" style="shape=partialRectangle;html=1;whiteSpace=wrap;connectable=0;strokeColor=#DFDFDF;overflow=hidden;fillColor=#F7F7F7;top=1;left=1;bottom=1;right=1;pointerEvents=1;fontSize=12;align=left;verticalAlign=middle;spacingLeft=10;spacingRight=10;fontFamily=Helvetica;fontColor=#333333;gradientColor=none;" vertex="1" parent="t6atKej5fnVRMdNGpLLc-312">
          <mxGeometry width="90" height="40" as="geometry">
            <mxRectangle width="90" height="40" as="alternateBounds" />
          </mxGeometry>
        </mxCell>
        <mxCell id="t6atKej5fnVRMdNGpLLc-314" value="SoC, MaxPower&amp;nbsp;" style="shape=partialRectangle;html=1;whiteSpace=wrap;connectable=0;strokeColor=#DFDFDF;overflow=hidden;fillColor=#FFFFFF;top=1;left=1;bottom=1;right=1;pointerEvents=1;fontSize=12;align=left;verticalAlign=middle;spacingLeft=10;spacingRight=10;fontFamily=Helvetica;fontColor=#333333;gradientColor=none;" vertex="1" parent="t6atKej5fnVRMdNGpLLc-312">
          <mxGeometry x="90" width="590" height="40" as="geometry">
            <mxRectangle width="590" height="40" as="alternateBounds" />
          </mxGeometry>
        </mxCell>
        <mxCell id="t6atKej5fnVRMdNGpLLc-315" style="shape=tableRow;horizontal=0;startSize=0;swimlaneHead=0;swimlaneBody=0;strokeColor=inherit;top=0;left=0;bottom=0;right=0;collapsible=0;dropTarget=0;fillColor=none;points=[[0,0.5],[1,0.5]];portConstraint=eastwest;fontSize=16;" vertex="1" parent="t6atKej5fnVRMdNGpLLc-305">
          <mxGeometry y="130" width="680" height="40" as="geometry" />
        </mxCell>
        <mxCell id="t6atKej5fnVRMdNGpLLc-316" value="Changes" style="shape=partialRectangle;html=1;whiteSpace=wrap;connectable=0;strokeColor=#DFDFDF;overflow=hidden;fillColor=#F7F7F7;top=1;left=1;bottom=1;right=1;pointerEvents=1;fontSize=12;align=left;verticalAlign=middle;spacingLeft=10;spacingRight=10;fontFamily=Helvetica;fontColor=#333333;gradientColor=none;" vertex="1" parent="t6atKej5fnVRMdNGpLLc-315">
          <mxGeometry width="90" height="40" as="geometry">
            <mxRectangle width="90" height="40" as="alternateBounds" />
          </mxGeometry>
        </mxCell>
        <mxCell id="t6atKej5fnVRMdNGpLLc-317" value="Module" style="shape=partialRectangle;html=1;whiteSpace=wrap;connectable=0;strokeColor=#DFDFDF;overflow=hidden;fillColor=#FFFFFF;top=1;left=1;bottom=1;right=1;pointerEvents=1;fontSize=12;align=left;verticalAlign=middle;spacingLeft=10;spacingRight=10;fontFamily=Helvetica;fontColor=#333333;gradientColor=none;" vertex="1" parent="t6atKej5fnVRMdNGpLLc-315">
          <mxGeometry x="90" width="590" height="40" as="geometry">
            <mxRectangle width="590" height="40" as="alternateBounds" />
          </mxGeometry>
        </mxCell>
        <mxCell id="t6atKej5fnVRMdNGpLLc-318" style="shape=tableRow;horizontal=0;startSize=0;swimlaneHead=0;swimlaneBody=0;strokeColor=inherit;top=0;left=0;bottom=0;right=0;collapsible=0;dropTarget=0;fillColor=none;points=[[0,0.5],[1,0.5]];portConstraint=eastwest;fontSize=16;" vertex="1" parent="t6atKej5fnVRMdNGpLLc-305">
          <mxGeometry y="170" width="680" height="40" as="geometry" />
        </mxCell>
        <mxCell id="t6atKej5fnVRMdNGpLLc-319" value="Assumes" style="shape=partialRectangle;html=1;whiteSpace=wrap;connectable=0;strokeColor=#DFDFDF;overflow=hidden;fillColor=#F7F7F7;top=1;left=1;bottom=1;right=1;pointerEvents=1;fontSize=12;align=left;verticalAlign=middle;spacingLeft=10;spacingRight=10;fontFamily=Helvetica;fontColor=#333333;gradientColor=none;" vertex="1" parent="t6atKej5fnVRMdNGpLLc-318">
          <mxGeometry width="90" height="40" as="geometry">
            <mxRectangle width="90" height="40" as="alternateBounds" />
          </mxGeometry>
        </mxCell>
        <mxCell id="t6atKej5fnVRMdNGpLLc-320" value="The Module is in the Charging or Supplying state" style="shape=partialRectangle;html=1;whiteSpace=wrap;connectable=0;strokeColor=#DFDFDF;overflow=hidden;fillColor=#FFFFFF;top=1;left=1;bottom=1;right=1;pointerEvents=1;fontSize=12;align=left;verticalAlign=middle;spacingLeft=10;spacingRight=10;fontFamily=Helvetica;fontColor=#333333;gradientColor=none;" vertex="1" parent="t6atKej5fnVRMdNGpLLc-318">
          <mxGeometry x="90" width="590" height="40" as="geometry">
            <mxRectangle width="590" height="40" as="alternateBounds" />
          </mxGeometry>
        </mxCell>
        <mxCell id="t6atKej5fnVRMdNGpLLc-321" style="shape=tableRow;horizontal=0;startSize=0;swimlaneHead=0;swimlaneBody=0;strokeColor=inherit;top=0;left=0;bottom=0;right=0;collapsible=0;dropTarget=0;fillColor=none;points=[[0,0.5],[1,0.5]];portConstraint=eastwest;fontSize=16;" vertex="1" parent="t6atKej5fnVRMdNGpLLc-305">
          <mxGeometry y="210" width="680" height="80" as="geometry" />
        </mxCell>
        <mxCell id="t6atKej5fnVRMdNGpLLc-322" value="Result" style="shape=partialRectangle;html=1;whiteSpace=wrap;connectable=0;strokeColor=#DFDFDF;overflow=hidden;fillColor=#F7F7F7;top=1;left=1;bottom=1;right=1;pointerEvents=1;fontSize=12;align=left;verticalAlign=middle;spacingLeft=10;spacingRight=10;fontFamily=Helvetica;fontColor=#333333;gradientColor=none;" vertex="1" parent="t6atKej5fnVRMdNGpLLc-321">
          <mxGeometry width="90" height="80" as="geometry">
            <mxRectangle width="90" height="80" as="alternateBounds" />
          </mxGeometry>
        </mxCell>
        <mxCell id="t6atKej5fnVRMdNGpLLc-323" value="&lt;div&gt;&lt;div&gt;if Module&amp;nbsp;is in the Charging and SoC = MaxPower&lt;div&gt;&lt;span style=&quot;white-space: pre;&quot;&gt;&#x9;&lt;/span&gt;Module is in the Idle state&lt;/div&gt;&lt;div&gt;if Module&amp;nbsp;is in the Supplying&amp;nbsp;&lt;span style=&quot;background-color: transparent; color: light-dark(rgb(51, 51, 51), rgb(193, 193, 193));&quot;&gt;and SoC = 0&lt;/span&gt;&lt;/div&gt;&lt;div&gt;&lt;span style=&quot;white-space: pre;&quot;&gt;&#x9;&lt;/span&gt;Module is in the Idle&amp;nbsp;state&lt;/div&gt;&lt;div&gt;&lt;br&gt;&lt;/div&gt;&lt;/div&gt;&lt;/div&gt;" style="shape=partialRectangle;html=1;whiteSpace=wrap;connectable=0;strokeColor=#DFDFDF;overflow=hidden;fillColor=#FFFFFF;top=1;left=1;bottom=1;right=1;pointerEvents=1;fontSize=12;align=left;verticalAlign=middle;spacingLeft=10;spacingRight=10;fontFamily=Helvetica;fontColor=#333333;gradientColor=none;" vertex="1" parent="t6atKej5fnVRMdNGpLLc-321">
          <mxGeometry x="90" width="590" height="80" as="geometry">
            <mxRectangle width="590" height="80" as="alternateBounds" />
          </mxGeometry>
        </mxCell>
        <mxCell id="t6atKej5fnVRMdNGpLLc-340" value="&lt;font color=&quot;#0070f2&quot; face=&quot;arial&quot; style=&quot;font-size: 16px;&quot;&gt;&lt;b style=&quot;font-size: 16px;&quot;&gt;PoweSupplyingPart&lt;/b&gt;&lt;/font&gt;" style="text;html=1;align=left;verticalAlign=middle;resizable=0;points=[];autosize=1;strokeColor=none;fillColor=none;fontSize=12;fontColor=#1d2d3e;fontFamily=Helvetica;" vertex="1" parent="1">
          <mxGeometry x="60" y="4780" width="170" height="30" as="geometry" />
        </mxCell>
      </root>
    </mxGraphModel>
  </diagram>
</mxfile>
